<svg xmlns="http://www.w3.org/2000/svg" xmlns:xlink="http://www.w3.org/1999/xlink" width="480" zoomAndPan="magnify" viewBox="0 0 360 359.999987" height="480" preserveAspectRatio="xMidYMid meet" version="1.0"><defs><clipPath id="944397be0f"><path d="M 126 126 L 234 126 L 234 234 L 126 234 Z M 126 126 " clip-rule="nonzero"/></clipPath><clipPath id="f4a2bddb09"><path d="M 180 126 C 150.175781 126 126 150.175781 126 180 C 126 209.824219 150.175781 234 180 234 C 209.824219 234 234 209.824219 234 180 C 234 150.175781 209.824219 126 180 126 Z M 180 126 " clip-rule="nonzero"/></clipPath><clipPath id="f6b68d24f0"><path d="M 131.546875 131.546875 L 228.453125 131.546875 L 228.453125 228.453125 L 131.546875 228.453125 Z M 131.546875 131.546875 " clip-rule="nonzero"/></clipPath><clipPath id="73f9e1e811"><path d="M 180 131.546875 C 153.238281 131.546875 131.546875 153.238281 131.546875 180 C 131.546875 206.761719 153.238281 228.453125 180 228.453125 C 206.761719 228.453125 228.453125 206.761719 228.453125 180 C 228.453125 153.238281 206.761719 131.546875 180 131.546875 Z M 180 131.546875 " clip-rule="nonzero"/></clipPath><clipPath id="2f21950852"><path d="M 147 167 L 213 167 L 213 209.445312 L 147 209.445312 Z M 147 167 " clip-rule="nonzero"/></clipPath><clipPath id="db5ac185c4"><path d="M 168 188 L 192 188 L 192 209.445312 L 168 209.445312 Z M 168 188 " clip-rule="nonzero"/></clipPath><clipPath id="f2d247d9c8"><path d="M 168 188 L 171 188 L 171 209.445312 L 168 209.445312 Z M 168 188 " clip-rule="nonzero"/></clipPath><clipPath id="5936070c1c"><path d="M 141.035156 140.445312 L 219 140.445312 L 219 172 L 141.035156 172 Z M 141.035156 140.445312 " clip-rule="nonzero"/></clipPath><clipPath id="67a50c5560"><path d="M 189 188 L 192 188 L 192 209.445312 L 189 209.445312 Z M 189 188 " clip-rule="nonzero"/></clipPath><clipPath id="8b6b7d149f"><path d="M 178 188 L 182 188 L 182 209.445312 L 178 209.445312 Z M 178 188 " clip-rule="nonzero"/></clipPath></defs><g clip-path="url(#944397be0f)"><g clip-path="url(#f4a2bddb09)"><path fill="#d8868d" d="M 126 126 L 234 126 L 234 234 L 126 234 Z M 126 126 " fill-opacity="1" fill-rule="nonzero"/></g></g><g clip-path="url(#f6b68d24f0)"><g clip-path="url(#73f9e1e811)"><path fill="#faabb2" d="M 131.546875 131.546875 L 228.453125 131.546875 L 228.453125 228.453125 L 131.546875 228.453125 Z M 131.546875 131.546875 " fill-opacity="1" fill-rule="nonzero"/></g></g><g clip-path="url(#2f21950852)"><path fill="#d62b2b" d="M 180.214844 167.503906 L 147.253906 167.503906 L 147.253906 209.457031 L 212.796875 209.457031 L 212.796875 167.503906 Z M 180.214844 167.503906 " fill-opacity="1" fill-rule="nonzero"/></g><path fill="#840f0f" d="M 148.832031 200.835938 L 159.496094 200.835938 L 159.496094 204.316406 L 148.832031 204.316406 Z M 148.832031 200.835938 " fill-opacity="1" fill-rule="nonzero"/><g clip-path="url(#db5ac185c4)"><path fill="#b73232" d="M 186.972656 188.078125 L 168.796875 188.078125 L 168.796875 209.457031 L 191.253906 209.457031 L 191.253906 188.078125 Z M 186.972656 188.078125 " fill-opacity="1" fill-rule="nonzero"/></g><path fill="#840f0f" d="M 186.972656 188.078125 L 168.796875 188.078125 L 168.796875 189.914062 L 191.253906 189.914062 L 191.253906 188.078125 Z M 186.972656 188.078125 " fill-opacity="1" fill-rule="nonzero"/><g clip-path="url(#f2d247d9c8)"><path fill="#fefefe" d="M 168.796875 188.078125 L 170.4375 188.078125 L 170.4375 209.457031 L 168.796875 209.457031 Z M 168.796875 188.078125 " fill-opacity="1" fill-rule="nonzero"/></g><path fill="#fefefe" d="M 180.292969 190.605469 L 179.195312 189.914062 L 174.722656 196.902344 L 170.253906 189.914062 L 169.15625 190.605469 L 173.953125 198.105469 L 169.15625 205.605469 L 170.253906 206.296875 L 174.722656 199.308594 L 179.195312 206.296875 L 180.292969 205.605469 L 175.492188 198.105469 Z M 180.292969 190.605469 " fill-opacity="1" fill-rule="nonzero"/><g clip-path="url(#5936070c1c)"><path fill="#fefefe" d="M 218.363281 168.492188 L 202.902344 149.007812 L 181.234375 140.796875 L 180.628906 140.566406 C 180.429688 140.492188 180.226562 140.453125 180.027344 140.445312 C 179.824219 140.453125 179.625 140.492188 179.421875 140.566406 L 178.816406 140.796875 L 157.152344 149.007812 L 141.691406 168.492188 C 141.03125 169.328125 141.175781 170.539062 142.011719 171.203125 C 142.371094 171.480469 142.792969 171.617188 143.214844 171.617188 C 143.789062 171.617188 144.355469 171.363281 144.738281 170.882812 L 159.535156 152.234375 L 180.027344 144.46875 L 200.523438 152.234375 L 215.316406 170.882812 C 215.699219 171.363281 216.265625 171.617188 216.839844 171.617188 C 217.261719 171.617188 217.683594 171.480469 218.039062 171.203125 C 218.882812 170.539062 219.023438 169.328125 218.363281 168.492188 Z M 218.363281 168.492188 " fill-opacity="1" fill-rule="nonzero"/></g><path fill="#d62b2b" d="M 200.523438 152.234375 L 180.316406 144.359375 L 159.53125 152.234375 L 147.253906 167.503906 L 212.796875 167.503906 Z M 200.523438 152.234375 " fill-opacity="1" fill-rule="nonzero"/><path fill="#fefefe" d="M 180.1875 186.488281 L 168.796875 186.488281 L 168.796875 188.078125 L 191.253906 188.078125 L 191.253906 186.488281 Z M 180.1875 186.488281 " fill-opacity="1" fill-rule="nonzero"/><g clip-path="url(#67a50c5560)"><path fill="#fefefe" d="M 191.257812 209.457031 L 189.617188 209.457031 L 189.617188 188.078125 L 191.257812 188.078125 Z M 191.257812 209.457031 " fill-opacity="1" fill-rule="nonzero"/></g><g clip-path="url(#8b6b7d149f)"><path fill="#fefefe" d="M 180.609375 188.078125 L 178.96875 188.078125 L 178.96875 209.457031 L 181.082031 209.457031 L 181.082031 188.078125 Z M 180.609375 188.078125 " fill-opacity="1" fill-rule="nonzero"/></g><path fill="#fefefe" d="M 190.894531 190.605469 L 189.796875 189.914062 L 185.328125 196.902344 L 180.859375 189.914062 L 179.761719 190.605469 L 184.558594 198.105469 L 179.761719 205.605469 L 180.859375 206.296875 L 185.328125 199.308594 L 189.796875 206.296875 L 190.894531 205.605469 L 186.097656 198.105469 Z M 190.894531 190.605469 " fill-opacity="1" fill-rule="nonzero"/><path fill="#fefefe" d="M 179.546875 170.386719 C 179.847656 170.386719 180.144531 170.417969 180.4375 170.476562 C 180.730469 170.535156 181.015625 170.621094 181.292969 170.734375 C 181.570312 170.847656 181.832031 170.988281 182.082031 171.152344 C 182.332031 171.316406 182.5625 171.507812 182.773438 171.71875 C 182.984375 171.925781 183.171875 172.15625 183.339844 172.40625 C 183.503906 172.652344 183.644531 172.914062 183.761719 173.1875 C 183.875 173.464844 183.960938 173.746094 184.019531 174.039062 C 184.078125 174.332031 184.109375 174.625 184.109375 174.925781 L 184.109375 174.929688 C 184.109375 175.226562 184.078125 175.519531 184.019531 175.8125 C 183.960938 176.105469 183.875 176.386719 183.761719 176.664062 C 183.644531 176.9375 183.503906 177.199219 183.339844 177.449219 C 183.171875 177.695312 182.984375 177.925781 182.773438 178.136719 C 182.5625 178.347656 182.332031 178.535156 182.082031 178.699219 C 181.832031 178.867188 181.570312 179.003906 181.292969 179.117188 C 181.015625 179.234375 180.730469 179.320312 180.4375 179.378906 C 180.144531 179.433594 179.847656 179.464844 179.546875 179.464844 C 179.246094 179.464844 178.949219 179.433594 178.65625 179.378906 C 178.363281 179.320312 178.078125 179.234375 177.800781 179.117188 C 177.523438 179.003906 177.261719 178.867188 177.011719 178.699219 C 176.765625 178.535156 176.535156 178.347656 176.320312 178.136719 C 176.109375 177.925781 175.921875 177.695312 175.753906 177.449219 C 175.589844 177.199219 175.449219 176.9375 175.332031 176.664062 C 175.21875 176.386719 175.132812 176.105469 175.074219 175.8125 C 175.015625 175.519531 174.988281 175.226562 174.988281 174.929688 L 174.988281 174.925781 C 174.988281 174.625 175.015625 174.332031 175.074219 174.039062 C 175.132812 173.746094 175.21875 173.464844 175.332031 173.1875 C 175.449219 172.914062 175.589844 172.652344 175.753906 172.40625 C 175.921875 172.15625 176.109375 171.925781 176.320312 171.71875 C 176.535156 171.507812 176.765625 171.316406 177.011719 171.152344 C 177.261719 170.988281 177.523438 170.847656 177.800781 170.734375 C 178.078125 170.621094 178.363281 170.535156 178.65625 170.476562 C 178.949219 170.417969 179.246094 170.386719 179.546875 170.386719 Z M 179.546875 170.386719 " fill-opacity="1" fill-rule="nonzero"/><path fill="#020003" d="M 179.546875 178.277344 C 177.691406 178.277344 176.183594 176.773438 176.183594 174.929688 C 176.183594 173.082031 177.691406 171.578125 179.546875 171.578125 C 181.40625 171.578125 182.914062 173.082031 182.914062 174.929688 C 182.914062 176.773438 181.40625 178.277344 179.546875 178.277344 Z M 179.546875 178.277344 " fill-opacity="1" fill-rule="nonzero"/><path fill="#fefefe" d="M 179.25 171.574219 L 179.847656 171.574219 L 179.847656 178.277344 L 179.25 178.277344 Z M 179.25 171.574219 " fill-opacity="1" fill-rule="nonzero"/><path fill="#fefefe" d="M 176.179688 174.628906 L 182.914062 174.628906 L 182.914062 175.226562 L 176.179688 175.226562 Z M 176.179688 174.628906 " fill-opacity="1" fill-rule="nonzero"/><path fill="#ea6363" d="M 156.683594 181.984375 L 148.019531 178.765625 L 149.460938 174.929688 L 157.386719 177.871094 Z M 156.683594 181.984375 " fill-opacity="1" fill-rule="nonzero"/><path fill="#000000" d="M 149.625 177.078125 C 149.625 177.148438 149.597656 177.210938 149.546875 177.265625 C 149.496094 177.316406 149.433594 177.339844 149.359375 177.339844 C 149.285156 177.339844 149.222656 177.316406 149.171875 177.265625 C 149.117188 177.210938 149.09375 177.148438 149.09375 177.078125 C 149.09375 177.003906 149.117188 176.941406 149.171875 176.890625 C 149.222656 176.839844 149.285156 176.8125 149.359375 176.8125 C 149.433594 176.8125 149.496094 176.839844 149.546875 176.890625 C 149.597656 176.941406 149.625 177.003906 149.625 177.078125 Z M 149.625 177.078125 " fill-opacity="1" fill-rule="nonzero"/><path fill="#840f0f" d="M 151.75 183.75 L 159.496094 183.75 L 159.496094 187.234375 L 151.75 187.234375 Z M 151.75 183.75 " fill-opacity="1" fill-rule="nonzero"/><path fill="#000000" d="M 158.761719 185.496094 C 158.761719 185.566406 158.738281 185.628906 158.6875 185.679688 C 158.632812 185.734375 158.570312 185.757812 158.496094 185.757812 C 158.425781 185.757812 158.363281 185.734375 158.308594 185.679688 C 158.257812 185.628906 158.230469 185.566406 158.230469 185.496094 C 158.230469 185.421875 158.257812 185.359375 158.308594 185.308594 C 158.363281 185.257812 158.425781 185.230469 158.496094 185.230469 C 158.570312 185.230469 158.632812 185.257812 158.6875 185.308594 C 158.738281 185.359375 158.761719 185.421875 158.761719 185.496094 Z M 158.761719 185.496094 " fill-opacity="1" fill-rule="nonzero"/><path fill="#000000" d="M 158.660156 202.578125 C 158.660156 202.652344 158.632812 202.714844 158.582031 202.765625 C 158.53125 202.816406 158.464844 202.84375 158.394531 202.84375 C 158.320312 202.84375 158.257812 202.816406 158.207031 202.765625 C 158.152344 202.714844 158.128906 202.652344 158.128906 202.578125 C 158.128906 202.503906 158.152344 202.441406 158.207031 202.390625 C 158.257812 202.339844 158.320312 202.3125 158.394531 202.3125 C 158.464844 202.3125 158.53125 202.339844 158.582031 202.390625 C 158.632812 202.441406 158.660156 202.503906 158.660156 202.578125 Z M 158.660156 202.578125 " fill-opacity="1" fill-rule="nonzero"/><path fill="#000000" d="M 152.78125 185.496094 C 152.78125 185.566406 152.753906 185.628906 152.703125 185.679688 C 152.652344 185.734375 152.589844 185.757812 152.515625 185.757812 C 152.441406 185.757812 152.378906 185.734375 152.328125 185.679688 C 152.277344 185.628906 152.25 185.566406 152.25 185.496094 C 152.25 185.421875 152.277344 185.359375 152.328125 185.308594 C 152.378906 185.257812 152.441406 185.230469 152.515625 185.230469 C 152.589844 185.230469 152.652344 185.257812 152.703125 185.308594 C 152.753906 185.359375 152.78125 185.421875 152.78125 185.496094 Z M 152.78125 185.496094 " fill-opacity="1" fill-rule="nonzero"/><path fill="#840f0f" d="M 200.914062 184.632812 L 208.660156 184.632812 L 208.660156 188.117188 L 200.914062 188.117188 Z M 200.914062 184.632812 " fill-opacity="1" fill-rule="nonzero"/><path fill="#000000" d="M 150.152344 202.578125 C 150.152344 202.652344 150.125 202.714844 150.074219 202.765625 C 150.023438 202.816406 149.960938 202.84375 149.886719 202.84375 C 149.8125 202.84375 149.75 202.816406 149.699219 202.765625 C 149.648438 202.714844 149.621094 202.652344 149.621094 202.578125 C 149.621094 202.503906 149.648438 202.441406 149.699219 202.390625 C 149.75 202.339844 149.8125 202.3125 149.886719 202.3125 C 149.960938 202.3125 150.023438 202.339844 150.074219 202.390625 C 150.125 202.441406 150.152344 202.503906 150.152344 202.578125 Z M 150.152344 202.578125 " fill-opacity="1" fill-rule="nonzero"/><path fill="#000000" d="M 207.925781 186.375 C 207.925781 186.445312 207.902344 186.507812 207.851562 186.558594 C 207.796875 186.613281 207.734375 186.636719 207.664062 186.636719 C 207.589844 186.636719 207.527344 186.613281 207.472656 186.558594 C 207.421875 186.507812 207.398438 186.445312 207.398438 186.375 C 207.398438 186.300781 207.421875 186.238281 207.472656 186.1875 C 207.527344 186.136719 207.589844 186.109375 207.664062 186.109375 C 207.734375 186.109375 207.796875 186.136719 207.851562 186.1875 C 207.902344 186.238281 207.925781 186.300781 207.925781 186.375 Z M 207.925781 186.375 " fill-opacity="1" fill-rule="nonzero"/><path fill="#000000" d="M 201.949219 186.375 C 201.949219 186.445312 201.921875 186.507812 201.871094 186.558594 C 201.820312 186.613281 201.757812 186.636719 201.683594 186.636719 C 201.609375 186.636719 201.546875 186.613281 201.496094 186.558594 C 201.441406 186.507812 201.417969 186.445312 201.417969 186.375 C 201.417969 186.300781 201.441406 186.238281 201.496094 186.1875 C 201.546875 186.136719 201.609375 186.109375 201.683594 186.109375 C 201.757812 186.109375 201.820312 186.136719 201.871094 186.1875 C 201.921875 186.238281 201.949219 186.300781 201.949219 186.375 Z M 201.949219 186.375 " fill-opacity="1" fill-rule="nonzero"/><path fill="#ea6363" d="M 204.171875 203.734375 L 196.40625 204.601562 L 196.011719 201.113281 L 203.777344 200.242188 L 203.566406 202.449219 Z M 204.171875 203.734375 " fill-opacity="1" fill-rule="nonzero"/><path fill="#ea6363" d="M 208.824219 171.835938 L 198.160156 172.105469 L 199.148438 167.875 L 208.714844 167.636719 Z M 208.824219 171.835938 " fill-opacity="1" fill-rule="nonzero"/><path fill="#f99393" d="M 168.796875 160.933594 L 160.28125 161.199219 L 161.269531 156.96875 L 168.6875 156.726562 Z M 168.796875 160.933594 " fill-opacity="1" fill-rule="nonzero"/><path fill="#840f0f" d="M 201.34375 193.167969 L 211.957031 194.230469 L 211.535156 198.414062 L 200.921875 197.351562 Z M 201.34375 193.167969 " fill-opacity="1" fill-rule="nonzero"/><path fill="#ea6363" d="M 154.308594 194.140625 L 161.738281 193.714844 L 161.941406 197.191406 L 154.511719 197.617188 Z M 154.308594 194.140625 " fill-opacity="1" fill-rule="nonzero"/><path fill="#f99393" d="M 196.722656 161.945312 L 205.03125 161.46875 L 205.234375 164.945312 L 196.925781 165.421875 Z M 196.722656 161.945312 " fill-opacity="1" fill-rule="nonzero"/><path fill="#ea6363" d="M 161.699219 180.765625 L 168.480469 177.710938 L 169.921875 180.886719 L 163.140625 183.9375 Z M 161.699219 180.765625 " fill-opacity="1" fill-rule="nonzero"/><path fill="#f99393" d="M 202.4375 205.261719 L 209.878906 205.261719 L 209.878906 208.746094 L 202.4375 208.746094 Z M 202.4375 205.261719 " fill-opacity="1" fill-rule="nonzero"/><path fill="#ea6363" d="M 193.089844 173.792969 L 200.53125 173.792969 L 200.53125 177.277344 L 193.089844 177.277344 Z M 193.089844 173.792969 " fill-opacity="1" fill-rule="nonzero"/><path fill="#f99393" d="M 211.859375 183.691406 L 204.113281 182.453125 L 204.699219 178.835938 L 211.785156 179.964844 Z M 211.859375 183.691406 " fill-opacity="1" fill-rule="nonzero"/><path fill="#000000" d="M 205.585938 180.832031 C 205.585938 180.90625 205.558594 180.96875 205.507812 181.019531 C 205.457031 181.070312 205.394531 181.097656 205.320312 181.097656 C 205.246094 181.097656 205.183594 181.070312 205.132812 181.019531 C 205.082031 180.96875 205.054688 180.90625 205.054688 180.832031 C 205.054688 180.761719 205.082031 180.699219 205.132812 180.644531 C 205.183594 180.59375 205.246094 180.570312 205.320312 180.570312 C 205.394531 180.570312 205.457031 180.59375 205.507812 180.644531 C 205.558594 180.699219 205.585938 180.761719 205.585938 180.832031 Z M 205.585938 180.832031 " fill-opacity="1" fill-rule="nonzero"/><path fill="#ea6363" d="M 198.894531 157.277344 L 191.152344 156.039062 L 191.738281 152.417969 L 198.820312 153.550781 Z M 198.894531 157.277344 " fill-opacity="1" fill-rule="nonzero"/><path fill="#000000" d="M 192.625 154.417969 C 192.625 154.492188 192.597656 154.554688 192.546875 154.605469 C 192.492188 154.65625 192.429688 154.683594 192.359375 154.683594 C 192.285156 154.683594 192.222656 154.65625 192.171875 154.605469 C 192.117188 154.554688 192.09375 154.492188 192.09375 154.417969 C 192.09375 154.34375 192.117188 154.28125 192.171875 154.230469 C 192.222656 154.179688 192.285156 154.152344 192.359375 154.152344 C 192.429688 154.152344 192.492188 154.179688 192.546875 154.230469 C 192.597656 154.28125 192.625 154.34375 192.625 154.417969 Z M 192.625 154.417969 " fill-opacity="1" fill-rule="nonzero"/><path fill="#000000" d="M 200.09375 175.570312 C 200.09375 175.644531 200.066406 175.707031 200.015625 175.757812 C 199.960938 175.808594 199.898438 175.835938 199.828125 175.835938 C 199.753906 175.835938 199.691406 175.808594 199.640625 175.757812 C 199.585938 175.707031 199.5625 175.644531 199.5625 175.570312 C 199.5625 175.5 199.585938 175.4375 199.640625 175.386719 C 199.691406 175.332031 199.753906 175.308594 199.828125 175.308594 C 199.898438 175.308594 199.960938 175.332031 200.015625 175.386719 C 200.066406 175.4375 200.09375 175.5 200.09375 175.570312 Z M 200.09375 175.570312 " fill-opacity="1" fill-rule="nonzero"/><path fill="#000000" d="M 194.058594 175.570312 C 194.058594 175.644531 194.03125 175.707031 193.980469 175.757812 C 193.929688 175.808594 193.867188 175.835938 193.792969 175.835938 C 193.71875 175.835938 193.65625 175.808594 193.605469 175.757812 C 193.554688 175.707031 193.527344 175.644531 193.527344 175.570312 C 193.527344 175.5 193.554688 175.4375 193.605469 175.386719 C 193.65625 175.332031 193.71875 175.308594 193.792969 175.308594 C 193.867188 175.308594 193.929688 175.332031 193.980469 175.386719 C 194.03125 175.4375 194.058594 175.5 194.058594 175.570312 Z M 194.058594 175.570312 " fill-opacity="1" fill-rule="nonzero"/><path fill="#ea6363" d="M 154.375 165.828125 L 161.785156 165.183594 L 162.089844 168.65625 L 154.675781 169.296875 Z M 154.375 165.828125 " fill-opacity="1" fill-rule="nonzero"/><path fill="#000000" d="M 161.503906 167.015625 C 161.503906 167.089844 161.480469 167.152344 161.429688 167.203125 C 161.375 167.253906 161.3125 167.28125 161.238281 167.28125 C 161.167969 167.28125 161.105469 167.253906 161.050781 167.203125 C 161 167.152344 160.972656 167.089844 160.972656 167.015625 C 160.972656 166.941406 161 166.878906 161.050781 166.828125 C 161.105469 166.777344 161.167969 166.75 161.238281 166.75 C 161.3125 166.75 161.375 166.777344 161.429688 166.828125 C 161.480469 166.878906 161.503906 166.941406 161.503906 167.015625 Z M 161.503906 167.015625 " fill-opacity="1" fill-rule="nonzero"/><path fill="#000000" d="M 155.496094 167.535156 C 155.496094 167.609375 155.46875 167.671875 155.417969 167.722656 C 155.367188 167.773438 155.304688 167.800781 155.230469 167.800781 C 155.15625 167.800781 155.09375 167.773438 155.042969 167.722656 C 154.992188 167.671875 154.964844 167.609375 154.964844 167.535156 C 154.964844 167.460938 154.992188 167.398438 155.042969 167.347656 C 155.09375 167.296875 155.15625 167.269531 155.230469 167.269531 C 155.304688 167.269531 155.367188 167.296875 155.417969 167.347656 C 155.46875 167.398438 155.496094 167.460938 155.496094 167.535156 Z M 155.496094 167.535156 " fill-opacity="1" fill-rule="nonzero"/><path fill="#000000" d="M 209.414062 207.195312 C 209.414062 207.269531 209.386719 207.332031 209.335938 207.382812 C 209.285156 207.433594 209.222656 207.460938 209.148438 207.460938 C 209.074219 207.460938 209.011719 207.433594 208.960938 207.382812 C 208.910156 207.332031 208.882812 207.269531 208.882812 207.195312 C 208.882812 207.121094 208.910156 207.058594 208.960938 207.007812 C 209.011719 206.957031 209.074219 206.929688 209.148438 206.929688 C 209.222656 206.929688 209.285156 206.957031 209.335938 207.007812 C 209.386719 207.058594 209.414062 207.121094 209.414062 207.195312 Z M 209.414062 207.195312 " fill-opacity="1" fill-rule="nonzero"/><path fill="#000000" d="M 203.433594 207.195312 C 203.433594 207.269531 203.40625 207.332031 203.355469 207.382812 C 203.304688 207.433594 203.242188 207.460938 203.167969 207.460938 C 203.09375 207.460938 203.03125 207.433594 202.980469 207.382812 C 202.929688 207.332031 202.902344 207.269531 202.902344 207.195312 C 202.902344 207.121094 202.929688 207.058594 202.980469 207.007812 C 203.03125 206.957031 203.09375 206.929688 203.167969 206.929688 C 203.242188 206.929688 203.304688 206.957031 203.355469 207.007812 C 203.40625 207.058594 203.433594 207.121094 203.433594 207.195312 Z M 203.433594 207.195312 " fill-opacity="1" fill-rule="nonzero"/><path fill="#000000" d="M 202.476562 195.402344 C 202.476562 195.476562 202.449219 195.539062 202.398438 195.589844 C 202.347656 195.640625 202.285156 195.667969 202.210938 195.667969 C 202.136719 195.667969 202.074219 195.640625 202.023438 195.589844 C 201.972656 195.539062 201.945312 195.476562 201.945312 195.402344 C 201.945312 195.328125 201.972656 195.265625 202.023438 195.214844 C 202.074219 195.164062 202.136719 195.136719 202.210938 195.136719 C 202.285156 195.136719 202.347656 195.164062 202.398438 195.214844 C 202.449219 195.265625 202.476562 195.328125 202.476562 195.402344 Z M 202.476562 195.402344 " fill-opacity="1" fill-rule="nonzero"/><path fill="#000000" d="M 168.460938 179.746094 C 168.460938 179.820312 168.433594 179.882812 168.382812 179.933594 C 168.332031 179.984375 168.269531 180.011719 168.195312 180.011719 C 168.121094 180.011719 168.058594 179.984375 168.007812 179.933594 C 167.957031 179.882812 167.929688 179.820312 167.929688 179.746094 C 167.929688 179.671875 167.957031 179.609375 168.007812 179.558594 C 168.058594 179.507812 168.121094 179.480469 168.195312 179.480469 C 168.269531 179.480469 168.332031 179.507812 168.382812 179.558594 C 168.433594 179.609375 168.460938 179.671875 168.460938 179.746094 Z M 168.460938 179.746094 " fill-opacity="1" fill-rule="nonzero"/></svg>