<svg xmlns="http://www.w3.org/2000/svg" xmlns:xlink="http://www.w3.org/1999/xlink" width="480" zoomAndPan="magnify" viewBox="0 0 360 359.999987" height="480" preserveAspectRatio="xMidYMid meet" version="1.0"><defs><clipPath id="72b88c79d5"><path d="M 126 126 L 234 126 L 234 234 L 126 234 Z M 126 126 " clip-rule="nonzero"/></clipPath><clipPath id="7204dcb803"><path d="M 180 126 C 150.175781 126 126 150.175781 126 180 C 126 209.824219 150.175781 234 180 234 C 209.824219 234 234 209.824219 234 180 C 234 150.175781 209.824219 126 180 126 Z M 180 126 " clip-rule="nonzero"/></clipPath><clipPath id="6742c01f1c"><path d="M 131.546875 131.546875 L 228.453125 131.546875 L 228.453125 228.453125 L 131.546875 228.453125 Z M 131.546875 131.546875 " clip-rule="nonzero"/></clipPath><clipPath id="421acb12fb"><path d="M 180 131.546875 C 153.238281 131.546875 131.546875 153.238281 131.546875 180 C 131.546875 206.761719 153.238281 228.453125 180 228.453125 C 206.761719 228.453125 228.453125 206.761719 228.453125 180 C 228.453125 153.238281 206.761719 131.546875 180 131.546875 Z M 180 131.546875 " clip-rule="nonzero"/></clipPath><clipPath id="53ba811a89"><path d="M 140.414062 157.339844 L 219.914062 157.339844 L 219.914062 202.339844 L 140.414062 202.339844 Z M 140.414062 157.339844 " clip-rule="nonzero"/></clipPath></defs><g clip-path="url(#72b88c79d5)"><g clip-path="url(#7204dcb803)"><path fill="#d8868d" d="M 126 126 L 234 126 L 234 234 L 126 234 Z M 126 126 " fill-opacity="1" fill-rule="nonzero"/></g></g><g clip-path="url(#6742c01f1c)"><g clip-path="url(#421acb12fb)"><path fill="#faabb2" d="M 131.546875 131.546875 L 228.453125 131.546875 L 228.453125 228.453125 L 131.546875 228.453125 Z M 131.546875 131.546875 " fill-opacity="1" fill-rule="nonzero"/></g></g><g clip-path="url(#53ba811a89)"><path fill="#ffffff" d="M 214.203125 179.34375 C 218.519531 183.117188 221.324219 190.171875 218.328125 195.839844 C 212.925781 206.050781 194.46875 204.050781 194.410156 190.886719 L 165.136719 190.886719 C 163.453125 193.890625 163.328125 196.628906 161.425781 198.722656 C 150.230469 211.03125 131.570312 191.386719 145.339844 180.992188 C 143.75 177.839844 141.433594 177.15625 140.804688 174.394531 C 136.980469 157.5625 162.503906 153.3125 163.898438 169.445312 L 193.585938 169.445312 C 195.507812 166.96875 194.730469 165.042969 196.0625 162.847656 C 201.15625 154.441406 215.847656 155.984375 218.742188 165.324219 C 220.324219 170.429688 217.78125 176.351562 214.203125 179.34375 " fill-opacity="1" fill-rule="evenodd"/></g></svg>