<svg xmlns="http://www.w3.org/2000/svg" xmlns:xlink="http://www.w3.org/1999/xlink" width="480" zoomAndPan="magnify" viewBox="0 0 360 359.999987" height="480" preserveAspectRatio="xMidYMid meet" version="1.0"><defs><clipPath id="f9f7095211"><path d="M 126 126 L 234 126 L 234 234 L 126 234 Z M 126 126 " clip-rule="nonzero"/></clipPath><clipPath id="1d09815cc4"><path d="M 180 126 C 150.175781 126 126 150.175781 126 180 C 126 209.824219 150.175781 234 180 234 C 209.824219 234 234 209.824219 234 180 C 234 150.175781 209.824219 126 180 126 Z M 180 126 " clip-rule="nonzero"/></clipPath><clipPath id="b52e70ac10"><path d="M 131.546875 131.546875 L 228.453125 131.546875 L 228.453125 228.453125 L 131.546875 228.453125 Z M 131.546875 131.546875 " clip-rule="nonzero"/></clipPath><clipPath id="470f3496fe"><path d="M 180 131.546875 C 153.238281 131.546875 131.546875 153.238281 131.546875 180 C 131.546875 206.761719 153.238281 228.453125 180 228.453125 C 206.761719 228.453125 228.453125 206.761719 228.453125 180 C 228.453125 153.238281 206.761719 131.546875 180 131.546875 Z M 180 131.546875 " clip-rule="nonzero"/></clipPath></defs><g clip-path="url(#f9f7095211)"><g clip-path="url(#1d09815cc4)"><path fill="#cee7f5" d="M 126 126 L 234 126 L 234 234 L 126 234 Z M 126 126 " fill-opacity="1" fill-rule="nonzero"/></g></g><g clip-path="url(#b52e70ac10)"><g clip-path="url(#470f3496fe)"><path fill="#e8f7ff" d="M 131.546875 131.546875 L 228.453125 131.546875 L 228.453125 228.453125 L 131.546875 228.453125 Z M 131.546875 131.546875 " fill-opacity="1" fill-rule="nonzero"/></g></g><path fill="#77b255" d="M 203.261719 164.691406 C 209.398438 161.003906 210.914062 150.242188 209.6875 151.46875 C 210.914062 150.242188 199.863281 151.46875 196.179688 157.609375 C 196.179688 155.15625 193.722656 145.332031 190.039062 153.925781 C 186.355469 162.523438 187.582031 163.75 187.582031 166.207031 C 187.582031 168.664062 192.496094 168.664062 192.496094 168.664062 C 192.496094 168.664062 192.28125 173.359375 194.738281 173.359375 C 197.191406 173.359375 198.203125 174.371094 206.800781 170.6875 C 215.394531 167.003906 205.714844 164.691406 203.261719 164.691406 Z M 203.261719 164.691406 " fill-opacity="1" fill-rule="nonzero"/><path fill="#f4900c" d="M 188.195312 190.152344 C 174.972656 203.375 153.199219 212.867188 150.128906 209.796875 C 147.058594 206.726562 156.554688 184.957031 169.777344 171.730469 C 183 158.507812 189.800781 158.597656 195.566406 164.363281 C 201.328125 170.128906 201.421875 176.925781 188.195312 190.152344 Z M 188.195312 190.152344 " fill-opacity="1" fill-rule="nonzero"/><path fill="#d67503" d="M 187.246094 174.460938 C 185.558594 172.773438 182.4375 169.625 179.097656 163.859375 C 177.789062 164.714844 176.398438 165.753906 174.914062 167 C 179.78125 173.273438 189.019531 176.234375 187.246094 174.460938 Z M 174.246094 188.480469 C 172.441406 186.671875 168.984375 183.183594 165.382812 176.59375 C 164.1875 178.035156 163.039062 179.53125 161.945312 181.054688 C 166.820312 187.300781 176.011719 190.246094 174.246094 188.480469 Z M 190.402344 187.871094 C 184.179688 184.382812 180.867188 181.082031 179.109375 179.324219 C 177.335938 177.550781 180.308594 186.820312 186.605469 191.679688 C 187.144531 191.175781 189.707031 188.609375 190.402344 187.871094 Z M 169.242188 204.0625 C 170.796875 203.210938 172.375 202.285156 173.957031 201.289062 C 168.273438 197.980469 165.15625 194.894531 163.480469 193.21875 C 161.878906 191.617188 164.148438 199.03125 169.242188 204.0625 Z M 169.242188 204.0625 " fill-opacity="1" fill-rule="nonzero"/></svg>