<svg xmlns="http://www.w3.org/2000/svg" xmlns:xlink="http://www.w3.org/1999/xlink" width="480" zoomAndPan="magnify" viewBox="0 0 360 359.999987" height="480" preserveAspectRatio="xMidYMid meet" version="1.0"><defs><clipPath id="ee437a94c3"><path d="M 126 126 L 234 126 L 234 234 L 126 234 Z M 126 126 " clip-rule="nonzero"/></clipPath><clipPath id="2e3c75ad4d"><path d="M 180 126 C 150.175781 126 126 150.175781 126 180 C 126 209.824219 150.175781 234 180 234 C 209.824219 234 234 209.824219 234 180 C 234 150.175781 209.824219 126 180 126 Z M 180 126 " clip-rule="nonzero"/></clipPath><clipPath id="4de70bd6fc"><path d="M 131.546875 131.546875 L 228.453125 131.546875 L 228.453125 228.453125 L 131.546875 228.453125 Z M 131.546875 131.546875 " clip-rule="nonzero"/></clipPath><clipPath id="4e2659d1c7"><path d="M 180 131.546875 C 153.238281 131.546875 131.546875 153.238281 131.546875 180 C 131.546875 206.761719 153.238281 228.453125 180 228.453125 C 206.761719 228.453125 228.453125 206.761719 228.453125 180 C 228.453125 153.238281 206.761719 131.546875 180 131.546875 Z M 180 131.546875 " clip-rule="nonzero"/></clipPath><clipPath id="8eb3efd3af"><path d="M 131.546875 131.386719 L 228.296875 131.386719 L 228.296875 228 L 131.546875 228 Z M 131.546875 131.386719 " clip-rule="nonzero"/></clipPath></defs><g clip-path="url(#ee437a94c3)"><g clip-path="url(#2e3c75ad4d)"><path fill="#fdccbc" d="M 126 126 L 234 126 L 234 234 L 126 234 Z M 126 126 " fill-opacity="1" fill-rule="nonzero"/></g></g><g clip-path="url(#4de70bd6fc)"><g clip-path="url(#4e2659d1c7)"><path fill="#ffe3da" d="M 131.546875 131.546875 L 228.453125 131.546875 L 228.453125 228.453125 L 131.546875 228.453125 Z M 131.546875 131.546875 " fill-opacity="1" fill-rule="nonzero"/></g></g><g clip-path="url(#8eb3efd3af)"><path fill="#d8868d" d="M 206.480469 138.917969 C 206.726562 139.023438 206.441406 138.855469 207.6875 139.625 C 207.867188 139.734375 207.941406 139.796875 207.859375 139.972656 C 207.578125 140.566406 206.839844 141.40625 206.375 141.875 C 206.042969 142.214844 205.871094 142.277344 205.960938 142.535156 C 206.324219 143.585938 206.507812 144.507812 207.542969 145.402344 C 207.980469 145.777344 208.25 146.203125 209.253906 146.613281 C 211.765625 147.644531 213.066406 147.058594 214.742188 145.46875 C 214.859375 145.355469 214.878906 145.472656 215.984375 146.648438 C 215.996094 146.789062 215.917969 146.847656 215.847656 146.910156 C 214.261719 148.371094 213.914062 148.246094 213.445312 148.585938 C 213.527344 149.609375 214.523438 151.507812 214.808594 152.050781 C 215.695312 153.738281 218.738281 154.570312 220.777344 153.5 C 221.21875 153.269531 221.144531 153.308594 221.894531 154.414062 C 222.078125 154.683594 222.214844 154.808594 221.910156 154.96875 C 221.898438 154.972656 220.949219 155.371094 220.320312 155.5625 C 219.832031 155.714844 220.273438 155.730469 219.875 157.628906 C 219.453125 159.652344 218.476562 161.253906 217.539062 162.15625 C 217.179688 162.5 217.355469 162.542969 216.558594 163.121094 C 215.898438 163.601562 215.640625 163.742188 215.804688 163.90625 C 216.835938 164.9375 219.414062 165.828125 221.601562 165.621094 C 223.167969 165.472656 224.4375 164.390625 225.460938 163.195312 C 225.824219 162.773438 225.785156 162.835938 226.289062 164.664062 C 226.355469 164.917969 226.285156 164.980469 225.523438 165.652344 C 224.007812 166.988281 223.113281 167.128906 221.949219 167.390625 C 222.179688 168.941406 225.367188 171.394531 226.5625 171.097656 C 226.921875 171.007812 226.945312 171.347656 227.660156 171.332031 C 228.160156 171.316406 228.09375 171.273438 228.269531 172.960938 C 228.289062 173.160156 227.980469 173.113281 227.835938 173.128906 C 227.003906 173.21875 228.085938 176.375 224.398438 179.859375 C 221.960938 182.164062 220.757812 181.808594 220.914062 182.453125 C 221.285156 183.953125 221.730469 186.121094 222.800781 187.230469 C 223.597656 188.050781 225.371094 187.714844 226.335938 187.25 C 228.339844 186.273438 227.671875 186.480469 228.371094 185.976562 C 228.449219 186.355469 228.101562 188.070312 228.101562 188.078125 C 228.066406 188.40625 227.984375 188.636719 226.085938 189.289062 C 225.792969 189.390625 225.679688 189.367188 225.757812 189.648438 C 225.875 190.109375 225.578125 191.949219 226.664062 193.375 C 226.855469 193.628906 226.808594 193.617188 226.234375 195.234375 C 226.21875 195.28125 226.167969 195.324219 226.125 195.375 C 225.085938 194.773438 224.386719 192.792969 224.230469 192.632812 C 223.140625 193.824219 222.8125 194.667969 219.390625 196.578125 C 218.503906 197.074219 218.230469 196.578125 219.042969 198.023438 C 219.324219 198.527344 219.742188 198.910156 220.171875 199.28125 C 222.046875 200.894531 224.101562 199.769531 223.859375 200.328125 C 223.148438 201.941406 223.167969 202.039062 222.832031 202.007812 C 221.246094 201.863281 220.90625 201.953125 218.910156 200.582031 C 218.652344 200.40625 217.808594 199.378906 217.605469 199.179688 C 217.375 199.460938 216.46875 201.488281 215.910156 202.085938 C 212.660156 205.578125 212.023438 204.414062 212.339844 205.351562 C 212.527344 205.90625 213.164062 207.121094 214.242188 207.792969 C 215.796875 208.757812 215.917969 208.769531 217.757812 208.339844 C 219.316406 207.980469 221.136719 205.777344 218.984375 208.6875 C 218.265625 209.65625 217.390625 210.527344 216.8125 211.464844 C 216.757812 211.550781 215.691406 212.746094 215.449219 212.976562 C 215.253906 212.851562 215.703125 212.84375 216.050781 210.890625 C 216.238281 209.828125 215.191406 211.242188 211.996094 208.242188 C 211.617188 207.886719 211.472656 207.425781 211.144531 207.136719 C 210.898438 207.46875 209.378906 211.285156 204.5625 213.351562 C 204.375 213.433594 204.21875 213.472656 204.335938 213.679688 C 204.648438 214.25 204.898438 215.179688 206.261719 215.914062 C 210.242188 218.058594 213.171875 215.121094 210.140625 217.523438 C 208.886719 218.519531 208.917969 218.566406 208.726562 218.542969 C 207.148438 218.363281 205.539062 217.742188 204.320312 216.765625 C 204.089844 216.582031 203.90625 216.316406 203.222656 215.472656 C 202.808594 214.957031 201.9375 218.652344 197.699219 220.417969 C 197.324219 220.574219 197.320312 220.582031 197.480469 220.945312 C 198.46875 223.210938 199.476562 223.054688 200.324219 223.613281 C 199.976562 223.867188 199.128906 224.128906 198.421875 224.414062 C 198.21875 224.496094 198.054688 224.488281 197.878906 224.34375 C 196.355469 223.152344 196.394531 222.398438 196.183594 222.792969 C 195.507812 224.058594 194.308594 225.363281 193.605469 225.828125 C 192.53125 226.542969 185.132812 227.648438 185.125 227.648438 C 184.398438 227.777344 183.054688 226.808594 182.511719 226.300781 C 180.757812 224.652344 180.910156 223.464844 180.65625 223.910156 C 179.5 225.929688 177.820312 226.90625 177.21875 227.355469 C 176.863281 227.617188 176.59375 227.773438 172.925781 227.234375 C 172.917969 226.992188 176.871094 226.699219 179.058594 223.054688 C 179.667969 222.039062 179.910156 221.804688 179.492188 221.78125 C 178.03125 221.6875 176.757812 220.773438 176.035156 219.828125 C 174.289062 217.53125 175.085938 216.238281 174.28125 217.308594 C 172.285156 219.957031 171.152344 220.539062 169.289062 221.105469 C 168.613281 221.3125 167.96875 220.9375 167.953125 221.523438 C 167.945312 221.8125 167.941406 222.101562 168 222.386719 C 168.703125 225.78125 169.273438 225.789062 170.257812 226.828125 C 170.167969 226.890625 170.441406 226.886719 167.816406 226.488281 C 166.929688 226.351562 166.515625 223.726562 166.273438 223.433594 C 165.265625 224.496094 165.542969 224.300781 164.289062 225.328125 C 164.167969 225.425781 164.058594 225.449219 163.910156 225.386719 C 161.367188 224.3125 162.035156 224.960938 163.523438 223.65625 C 164.652344 222.660156 165.445312 221.617188 166.03125 220.496094 C 165.441406 219.84375 164.382812 219.449219 163.597656 217.972656 C 162.941406 216.738281 163.019531 215.601562 162.734375 215.976562 C 159.75 219.867188 157.125 218.230469 157.152344 218.953125 C 157.226562 220.863281 157.074219 220.441406 157.804688 222.589844 C 157.742188 222.667969 157.683594 222.632812 157.636719 222.605469 C 155.574219 221.433594 155.515625 221.433594 155.460938 221.0625 C 155.445312 220.976562 155.472656 220.871094 155.34375 220.808594 C 155.039062 221.148438 155.128906 221.164062 154.601562 220.824219 C 153.171875 219.90625 153.5625 220.550781 154.605469 218.453125 C 154.925781 217.808594 155.039062 217.675781 154.84375 217.488281 C 154.289062 216.953125 153.476562 216.347656 152.703125 214.191406 C 152.433594 213.441406 152.46875 214.976562 149.625 217.09375 C 149.386719 217.269531 149.382812 217.191406 148 216.207031 C 147.675781 215.976562 148.578125 216.011719 150.097656 214.308594 C 150.59375 213.753906 151.203125 212.734375 151.324219 212.410156 C 148.585938 211.648438 147.925781 210.773438 147.386719 207.847656 C 147.074219 207.667969 146.128906 209.976562 143.542969 210.878906 C 143.367188 210.9375 143.230469 210.914062 143.109375 210.769531 C 140.59375 207.746094 143.136719 211.722656 146.773438 205.140625 C 146.308594 204.882812 145.992188 205.050781 145.09375 204.492188 C 143.847656 203.714844 143.320312 201.363281 142.957031 200.671875 C 142.488281 200.992188 141.257812 203.230469 138.5 204.054688 C 138.261719 204.125 138.191406 204.101562 138.070312 203.898438 C 136.902344 201.996094 137.148438 202.761719 138.347656 202.210938 C 138.605469 202.089844 140.027344 201.695312 141.585938 199.390625 C 142.410156 198.175781 142.148438 198.660156 140.582031 197.910156 C 139.449219 197.367188 138.214844 196.304688 137.621094 194.792969 C 137.273438 193.914062 137.484375 195.179688 135.261719 196.527344 C 134.714844 196.859375 134.855469 196.917969 134.285156 195.074219 C 135.097656 194.410156 135.554688 194.394531 136.542969 192.289062 C 136.925781 191.480469 136.328125 192.074219 134.613281 191.523438 C 134.253906 191.410156 133.914062 191.226562 133.566406 191.070312 C 133.320312 190.957031 133.183594 190.761719 133.125 190.492188 C 131.875 184.722656 132.21875 187.398438 133.617188 188.832031 C 135.371094 190.628906 139.574219 190.648438 141.710938 187.589844 C 142.160156 186.945312 143.164062 185.460938 143.472656 184.730469 C 143.59375 184.457031 143.414062 184.453125 142.902344 184.261719 C 139.070312 182.808594 138.90625 178.214844 138.679688 177.972656 C 138.609375 178.046875 137.027344 181.195312 134.945312 182.722656 C 133.695312 183.636719 132.167969 184.136719 131.855469 184.054688 C 131.640625 183.605469 131.761719 183.046875 131.648438 182.566406 C 131.546875 182.140625 132.410156 182.367188 134.035156 181.183594 C 135.460938 180.148438 136.878906 177.476562 137.652344 175.917969 C 138.0625 175.085938 137.402344 175.757812 135.773438 174.847656 C 134.101562 173.914062 133.320312 172.765625 132.78125 171.429688 C 132.605469 170.996094 133.246094 168.296875 133.609375 166.746094 C 133.652344 166.5625 133.671875 166.445312 133.847656 166.40625 C 135.703125 165.972656 136.320312 165.902344 138.257812 162.914062 C 138.4375 162.632812 139.328125 161.128906 139.304688 160.871094 C 138.644531 160.527344 138.011719 160.625 136.746094 159.523438 C 136.378906 159.203125 136.230469 159.109375 136.332031 158.875 C 137.621094 155.972656 136.753906 158.082031 139.140625 158.886719 C 140.960938 159.496094 142.554688 159.300781 144.234375 158.042969 C 145.925781 156.78125 146.410156 155.378906 147.066406 153.820312 C 147.4375 152.9375 146.601562 153.777344 144.101562 152.285156 C 143.390625 151.859375 142.417969 151.0625 141.914062 150.25 C 141.769531 150.023438 141.988281 149.910156 142.367188 149.46875 C 143.71875 147.890625 142.714844 148.734375 143.878906 149.878906 C 144.945312 150.929688 147.011719 151.941406 148.316406 151.488281 C 151.402344 150.414062 152.6875 147.621094 153.5 144.746094 C 153.566406 144.507812 153.476562 144.460938 153.234375 144.425781 C 151.023438 144.09375 149.117188 142.566406 149.414062 142.226562 C 149.453125 142.179688 150.59375 141.226562 150.632812 141.195312 C 151.015625 141.421875 151.609375 142.296875 153.238281 142.617188 C 155.328125 143.027344 157.929688 141.910156 158.996094 139.042969 C 159.984375 136.375 159.558594 135.804688 160.011719 135.570312 C 161.800781 134.636719 161.28125 134.875 161.660156 134.738281 C 161.664062 134.746094 162.136719 140.117188 165.402344 140.816406 C 165.921875 140.925781 166.351562 141.078125 166.546875 141.082031 C 170.832031 141.207031 172.910156 136.4375 172.828125 132.117188 C 172.820312 131.527344 172.816406 131.613281 174.011719 131.523438 C 174.558594 131.480469 174.746094 131.457031 174.75 131.710938 C 174.792969 133.0625 174.605469 133.25 174.671875 133.886719 C 175.582031 142.511719 182.753906 141.859375 184.449219 138.207031 C 185.988281 134.898438 185.453125 133.519531 185.882812 131.6875 C 185.949219 131.394531 186.050781 131.445312 187.417969 131.699219 C 188.21875 131.847656 186.886719 133.664062 187.632812 137.554688 C 188.863281 143.957031 194.824219 140.871094 196.496094 137.804688 C 197.5625 135.851562 196.707031 133.804688 197.691406 134.167969 C 199.40625 134.800781 198.886719 134.382812 198.921875 136.066406 C 198.957031 137.722656 199.046875 138.996094 199.613281 140.558594 C 199.851562 141.207031 200.589844 142.195312 201.398438 142.234375 C 204.46875 142.386719 206.332031 139.03125 206.480469 138.917969 Z M 191 161.457031 C 190.488281 161.601562 189.671875 164.953125 187.160156 166.386719 C 184.757812 167.757812 184.152344 166.859375 184.171875 167.855469 C 184.339844 175.800781 190.304688 177.75 194.496094 171.261719 C 195.203125 170.167969 195.933594 168.542969 196.574219 167.1875 C 196.964844 166.363281 194.835938 167.78125 192.105469 163.953125 C 191.40625 162.980469 191.238281 162.117188 191 161.457031 Z M 155.523438 144.390625 C 155.5625 146.34375 156.058594 148.058594 157.023438 149.664062 C 157.148438 149.871094 157.445312 150.152344 157.644531 150.40625 C 158.113281 151 158.996094 151.417969 159.746094 151.601562 C 161.703125 152.082031 163.632812 150.480469 164.847656 148.863281 C 166.371094 146.839844 166.453125 145.820312 166.929688 143.296875 C 166.96875 143.082031 167.003906 142.902344 166.769531 142.90625 C 165.050781 142.929688 162.847656 141.957031 161.609375 140.058594 C 160.296875 138.039062 161.726562 139.464844 158.707031 142.65625 C 157.554688 143.878906 155.609375 144.332031 155.523438 144.390625 Z M 200.03125 153.8125 C 199.519531 154.710938 199.054688 155.617188 198.214844 156.445312 C 197.960938 156.699219 197.597656 157.117188 197.347656 157.292969 C 193.742188 159.835938 192.402344 158.320312 192.46875 159.050781 C 192.753906 162.351562 193.511719 162.8125 194.3125 163.84375 C 195.644531 165.558594 198.417969 165.375 200.253906 164.632812 C 202.914062 163.558594 203.867188 161.75 204.78125 159.507812 C 205.777344 157.058594 205.332031 158.527344 203.039062 157.464844 C 200.960938 156.503906 200.3125 154.425781 200.03125 153.8125 Z M 193.035156 145.527344 C 192.578125 146.546875 192.492188 147.722656 190.871094 149.128906 C 188.566406 151.128906 187.660156 150.847656 187.648438 151.359375 C 187.609375 153.394531 188.835938 154.859375 189.269531 155.5 C 190.464844 157.242188 195.203125 158.496094 197.945312 153.886719 C 199.015625 152.085938 199.214844 151.03125 199.441406 150.433594 C 199.5625 150.121094 199.425781 149.996094 199.207031 149.917969 C 197.742188 149.417969 197.234375 149.539062 194.089844 146.625 C 193.246094 145.839844 193.339844 145.632812 193.035156 145.527344 Z M 182.621094 170.703125 C 182.304688 171 180.078125 174.773438 177.050781 175.605469 C 176.609375 175.726562 176.832031 175.855469 176.925781 176.792969 C 177.109375 178.636719 177.851562 180.703125 178.730469 182.015625 C 179.972656 183.871094 182.734375 184.023438 184.789062 181.835938 C 186.644531 179.863281 188.082031 177.027344 187.695312 176.828125 C 187.46875 176.710938 185.621094 176.277344 184.117188 174.226562 C 182.914062 172.59375 182.734375 170.902344 182.621094 170.703125 Z M 205.558594 162.089844 C 204.609375 163.96875 203.164062 165.242188 201.296875 166.136719 C 199.125 167.171875 198.820312 166.371094 198.867188 167.394531 C 199.042969 171.230469 199.121094 173.933594 201.585938 174.015625 C 204.492188 174.117188 207.074219 171.515625 208.105469 169.363281 C 208.78125 167.953125 209.507812 165.425781 209.527344 165.242188 C 209.566406 164.910156 208.265625 164.921875 207.378906 163.84375 C 205.660156 161.742188 206.355469 160.523438 205.558594 162.089844 Z M 173.644531 137.628906 C 173.433594 138.019531 172.742188 140.023438 170.808594 141.5 C 169.15625 142.765625 168.789062 142.289062 169.039062 142.933594 C 169.613281 144.425781 169.726562 144.769531 170.164062 145.460938 C 172.691406 149.472656 174.730469 151.085938 178.316406 148.03125 C 179.878906 146.699219 180.347656 144.890625 180.65625 142.859375 C 180.742188 142.292969 179.984375 142.710938 179.183594 142.527344 C 178.425781 142.355469 177.480469 142.105469 176.871094 141.632812 C 176.167969 141.089844 175.847656 140.96875 175.464844 140.46875 C 173.597656 138.015625 173.964844 137.738281 173.644531 137.628906 Z M 181.769531 185.722656 C 181.679688 185.730469 182.109375 188.722656 183.15625 189.507812 C 183.957031 190.109375 184.828125 190.621094 185.789062 190.632812 C 187.246094 190.652344 188.507812 190.617188 189.796875 189.921875 C 190.347656 189.625 191.039062 189.148438 191.421875 188.648438 C 192.363281 187.425781 193.210938 186.011719 193.804688 184.527344 C 194.042969 183.933594 192.085938 184.332031 190.390625 182.46875 C 188.714844 180.632812 189.03125 179.199219 188.539062 179.734375 C 188.324219 179.96875 186 184.839844 182.03125 185.175781 C 181.644531 185.210938 181.714844 185.335938 181.769531 185.722656 Z M 212.570312 151.796875 C 212.488281 152.007812 211.796875 154.433594 210.402344 155.765625 C 207.882812 158.179688 207.460938 156.875 207.417969 158.160156 C 207.371094 159.515625 207.667969 161.40625 208.730469 162.601562 C 210.226562 164.28125 213.628906 162.996094 214.890625 162.152344 C 217.488281 160.417969 218.382812 157.242188 218.257812 156.011719 C 218.199219 155.40625 214.511719 156.007812 212.832031 152.136719 C 212.777344 152.019531 212.722656 151.90625 212.570312 151.796875 Z M 207.097656 185.984375 C 206.636719 186.84375 206.011719 188.808594 203.539062 190.46875 C 201.367188 191.929688 200.429688 191.105469 200.542969 191.902344 C 200.660156 192.761719 200.886719 194.371094 201.320312 195.296875 C 202.40625 197.59375 204.332031 198.347656 206.574219 197.558594 C 208.976562 196.714844 210.171875 194.304688 211.097656 192.226562 C 211.222656 191.945312 211.128906 191.878906 210.9375 190.695312 C 210.886719 190.382812 210.632812 190.378906 210.335938 190.179688 C 207.933594 188.558594 207.683594 187.175781 207.097656 185.984375 Z M 221.222656 169.839844 C 220.921875 170.210938 220.574219 171.519531 219.070312 172.789062 C 216.328125 175.105469 215.296875 174.269531 215.261719 174.894531 C 215.25 175.070312 215.289062 175.835938 215.285156 176.386719 C 215.277344 177.699219 215.53125 179.183594 216.335938 180.226562 C 217.945312 182.328125 224.75 179.746094 225.683594 173.726562 C 225.90625 172.308594 225.742188 173.230469 223.746094 172 C 221.945312 170.890625 222.023438 170.515625 221.222656 169.839844 Z M 186.253906 153.960938 C 185.980469 154.097656 184.390625 158.957031 179.679688 159.28125 C 179.535156 159.292969 179.390625 159.324219 179.398438 159.46875 C 179.511719 162.066406 180.15625 165.105469 182.722656 165.558594 C 183.0625 165.621094 183.402344 165.6875 183.75 165.640625 C 187.355469 165.136719 187.878906 163.386719 189.878906 159.515625 C 189.953125 159.371094 190.183594 158.8125 190.242188 158.65625 C 190.34375 158.390625 190.183594 158.335938 189.960938 158.246094 C 187.335938 157.128906 186.507812 154.027344 186.253906 153.960938 Z M 146.382812 170.898438 C 145.363281 172.417969 143.808594 174.632812 142.042969 175.15625 C 140.105469 175.734375 140.179688 175.195312 140.339844 176.269531 C 140.554688 177.734375 140.632812 181.265625 143.296875 182.496094 C 144.671875 183.132812 145.753906 182.488281 146.71875 182.027344 C 148.164062 181.335938 149.628906 178.402344 150.320312 176.769531 C 151.382812 174.261719 150.515625 176.414062 147.859375 173.964844 C 146.890625 173.070312 146.617188 171.445312 146.382812 170.898438 Z M 179.601562 184.914062 C 177.953125 183.960938 177.054688 183.445312 175.875 180.183594 C 175.039062 177.875 175.648438 177.652344 174.570312 179.84375 C 174.136719 180.730469 173.1875 182.019531 172.003906 182.980469 C 170.925781 183.855469 170.347656 183.953125 169.34375 184.261719 C 169.085938 184.339844 169.101562 184.40625 169.246094 185.148438 C 169.792969 187.929688 170.511719 189.882812 172.792969 190.71875 C 174.515625 191.351562 176.566406 190.078125 177.132812 189.382812 C 177.867188 188.488281 179.738281 185.378906 179.601562 184.914062 Z M 170.253906 167.503906 C 170.121094 167.203125 167.632812 166.847656 166.550781 163.714844 C 165.933594 161.921875 166.328125 161.910156 164.929688 164.199219 C 162.226562 168.605469 159.261719 166.980469 159.367188 168.089844 C 159.75 172.296875 160.4375 175.167969 164.914062 173.820312 C 167.414062 173.066406 168.199219 171.203125 170.253906 167.503906 Z M 191.816406 201.945312 C 191.339844 202.390625 190.4375 204.605469 187.417969 206.308594 C 184.21875 208.113281 184.117188 205.933594 184.757812 209.347656 C 185.429688 212.917969 189.6875 213.417969 192.808594 211.675781 C 194.535156 210.714844 195.402344 208.960938 196.15625 207.140625 C 196.230469 206.96875 196.308594 206.757812 196.109375 206.742188 C 195.160156 206.667969 194.535156 206.09375 193.773438 205.539062 C 192.359375 204.511719 191.9375 202.25 191.816406 201.945312 Z M 197.1875 170.140625 C 196.789062 170.472656 195.171875 175.410156 190.289062 176.773438 C 189.917969 176.875 189.871094 176.75 190.410156 178.804688 C 191.210938 181.820312 193.605469 182.921875 195.648438 182.398438 C 197.460938 181.933594 199.078125 181.359375 200.394531 176.558594 C 200.777344 175.160156 200.398438 176.023438 199.246094 175.066406 C 197.042969 173.226562 197.589844 170.855469 197.1875 170.140625 Z M 168.300781 145.816406 C 167.996094 146.335938 168.273438 146.425781 167.300781 148.410156 C 166.71875 149.59375 165.097656 151.597656 163.476562 152.574219 C 162.464844 153.179688 162.34375 153.078125 162.402344 153.375 C 162.609375 154.394531 162.816406 155.289062 163.316406 156.199219 C 164.15625 157.730469 166.953125 158.628906 169.519531 156.898438 C 171.457031 155.585938 172.1875 153.671875 173.117188 151.355469 C 173.3125 150.875 172.996094 151.261719 171.261719 149.789062 C 170.179688 148.871094 168.515625 146.140625 168.300781 145.816406 Z M 170.511719 170.820312 C 169.855469 171.269531 168.898438 175.023438 164.382812 175.765625 C 164.007812 175.828125 163.984375 175.953125 164.046875 176.339844 C 164.609375 179.851562 164.839844 182.371094 167.695312 182.621094 C 171.078125 182.914062 173.40625 179.09375 174.3125 175.808594 C 174.414062 175.441406 173.804688 175.785156 172.285156 174.359375 C 171.132812 173.28125 170.875 171.90625 170.511719 170.820312 Z M 141.730469 161.035156 C 141.648438 161.96875 142.019531 163.917969 142.839844 164.894531 C 143.566406 165.765625 144.269531 166.707031 146.167969 166.691406 C 147.085938 166.683594 148.597656 166.152344 149.742188 165.039062 C 150.839844 163.964844 151.40625 162.71875 151.773438 162.042969 C 153.945312 158.058594 151.59375 162.113281 148.460938 155.683594 C 148.277344 155.308594 148.195312 155.980469 147.246094 157.496094 C 146.773438 158.257812 144.878906 160.117188 143.164062 160.644531 C 141.921875 161.03125 142.164062 160.890625 141.730469 161.035156 Z M 140.152344 163.292969 C 139.882812 163.609375 138.921875 165.386719 137.359375 166.875 C 136.804688 167.40625 135.578125 167.878906 134.664062 168.082031 C 134.027344 168.222656 133.878906 168.199219 133.917969 168.457031 C 134.171875 170.105469 134.433594 171.714844 136.125 172.980469 C 137.421875 173.945312 139.832031 173.945312 141.445312 173.464844 C 142.9375 173.019531 144.816406 170.269531 145.472656 168.742188 C 145.664062 168.300781 145.1875 168.453125 144.511719 168.257812 C 142.09375 167.566406 140.738281 165.148438 140.558594 164.539062 C 140.191406 163.277344 140.25 163.492188 140.152344 163.292969 Z M 209.71875 170.257812 C 209.578125 170.304688 207.453125 174.769531 203.246094 175.671875 C 202.628906 175.800781 202.699219 175.808594 202.550781 175.878906 C 202.632812 176.734375 202.648438 177.234375 202.992188 178.40625 C 203.511719 180.144531 204.890625 181.71875 206.871094 181.675781 C 209.988281 181.617188 212.023438 177.636719 213.25 174.785156 C 213.339844 174.570312 213.285156 174.472656 213.066406 174.382812 C 209.960938 173.121094 210.285156 171.289062 209.71875 170.257812 Z M 162.5625 178.800781 C 161.925781 179.925781 161.148438 181.355469 160.070312 182.464844 C 158.246094 184.339844 157.355469 183.621094 157.496094 184.492188 C 157.746094 186.027344 157.855469 188.492188 160.300781 190.714844 C 162.003906 192.265625 164.289062 190.632812 165.566406 188.257812 C 166.410156 186.6875 167.023438 184.757812 167.046875 184.339844 C 162.652344 183.140625 163.144531 179.804688 162.5625 178.800781 Z M 194.769531 221.566406 C 195.382812 220.277344 193.394531 222.152344 190.304688 219.503906 C 189.210938 218.566406 188.8125 217.4375 188.546875 216.84375 C 188.128906 215.917969 187.789062 218.476562 184.886719 220.421875 C 182.703125 221.878906 182.03125 221.332031 182.136719 221.855469 C 183.503906 228.601562 192.199219 226.964844 194.769531 221.566406 Z M 184.253906 196.851562 C 179.601562 201.136719 179.039062 197.222656 179.960938 201.367188 C 180.183594 202.363281 180.507812 203.089844 181.207031 204.046875 C 183.957031 207.800781 189.425781 203.628906 190.886719 199.699219 C 190.996094 199.398438 190.488281 199.546875 189.996094 199.460938 C 188.164062 199.140625 186.449219 197.578125 185.96875 195.640625 C 185.6875 194.511719 185.980469 195.257812 184.253906 196.851562 Z M 183.003906 209.707031 C 182.933594 209.730469 182.882812 209.703125 182.75 209.9375 C 182.445312 210.464844 181.585938 211.480469 181.375 211.667969 C 176.371094 216.085938 175.882812 212.476562 176.429688 216.292969 C 176.59375 217.4375 176.914062 217.890625 177.316406 218.5625 C 178.144531 219.941406 179.722656 220.210938 181.335938 219.9375 C 184.246094 219.441406 185.96875 217.335938 187.40625 214.511719 C 187.550781 214.222656 187.34375 214.335938 186.40625 213.953125 C 185.058594 213.402344 183.5 211.929688 183.105469 210.089844 C 183.078125 209.96875 183.039062 209.847656 183.003906 209.707031 Z M 167.371094 159.824219 C 167.695312 161.597656 168.21875 164.214844 169.722656 165.1875 C 171.414062 166.285156 173.304688 165.871094 174.683594 164.539062 C 176.132812 163.140625 177.324219 159.964844 177.441406 159.207031 C 177.496094 158.832031 176.136719 158.851562 174.96875 157.433594 C 173.914062 156.164062 173.855469 154.746094 173.6875 154.710938 C 173.40625 154.652344 172.476562 157.839844 168.960938 159.183594 C 167.648438 159.683594 167.355469 159.390625 167.371094 159.824219 Z M 178.015625 162.832031 C 177.8125 163.109375 176.828125 165.234375 175.210938 166.417969 C 173.238281 167.863281 172.25 167.238281 172.179688 167.796875 C 171.609375 172.351562 174.269531 174.671875 176.503906 173.914062 C 178.976562 173.082031 181.230469 170.015625 182.128906 167.609375 C 182.363281 166.988281 181.628906 167.417969 180.308594 166.386719 C 178.421875 164.914062 178.316406 163.082031 178.015625 162.832031 Z M 204.65625 201.417969 C 204.09375 202.046875 202.90625 205.070312 199.40625 206.28125 C 198.875 206.464844 198.621094 206.492188 198.644531 206.84375 C 198.753906 208.417969 198.714844 209.597656 199.695312 210.808594 C 202.789062 214.621094 209.40625 208.382812 209.726562 205.660156 C 209.019531 205.566406 208.507812 205.8125 207.324219 205.214844 C 205.511719 204.308594 204.847656 201.789062 204.65625 201.417969 Z M 199.066406 194.117188 C 198.75 194.1875 197.5 196.90625 194.675781 198.367188 C 193.125 199.171875 193.003906 198.824219 193.128906 199.429688 C 193.394531 200.707031 193.558594 201.800781 194.058594 202.9375 C 195.515625 206.242188 199.304688 204.980469 201.324219 202.996094 C 202.15625 202.175781 203.371094 200.117188 203.582031 199.492188 C 201.203125 198.734375 199.984375 197.214844 199.371094 195.132812 C 199.195312 194.53125 199.21875 194.449219 199.066406 194.117188 Z M 194.796875 186.734375 C 194.132812 187.667969 193.394531 189.5625 191.691406 190.839844 C 189.910156 192.175781 188.648438 192.1875 187.671875 192.363281 C 187.273438 192.433594 187.296875 192.527344 187.371094 193.261719 C 187.453125 194.042969 187.484375 194.574219 187.757812 195.4375 C 189.152344 199.828125 195.464844 197.128906 197.625 192.90625 C 198.503906 191.1875 198.527344 191.273438 198.066406 191.019531 C 195.375 189.523438 195.265625 187.867188 194.796875 186.734375 Z M 181.152344 147.304688 C 180.84375 147.902344 180.441406 148.4375 179.960938 148.910156 C 175.648438 153.144531 174.59375 149.839844 175.15625 152.832031 C 175.59375 155.167969 176.023438 157.058594 178.53125 157.472656 C 178.816406 157.519531 179.101562 157.585938 179.390625 157.542969 C 182.523438 157.113281 183.859375 155.1875 185.355469 151.535156 C 185.554688 151.039062 184.820312 151.378906 183.488281 150.355469 C 182.96875 149.957031 182.753906 149.777344 182.554688 149.488281 C 181.285156 147.625 181.542969 146.554688 181.152344 147.304688 Z M 178.320312 202.191406 C 178.121094 202.1875 176.78125 204.625 174.304688 205.71875 C 172.242188 206.625 172.007812 206.089844 172.007812 206.828125 C 172.011719 207.722656 171.789062 209.140625 172.683594 210.757812 C 174.871094 214.714844 179.957031 211.746094 181.910156 207.777344 C 182.027344 207.542969 182.117188 207.324219 182.15625 207.066406 C 179.796875 205.886719 179.160156 204.289062 178.320312 202.191406 Z M 157.914062 171.035156 C 157.613281 171.207031 157.164062 172.535156 155.179688 174.050781 C 152.546875 176.054688 152.632812 174.628906 152.742188 176.417969 C 152.875 178.617188 152.890625 180.207031 153.992188 181.792969 C 154.722656 182.847656 157.53125 183.023438 159.195312 180.75 C 160.125 179.480469 160.441406 179.144531 161.515625 176.746094 C 161.953125 175.777344 161.835938 175.753906 161.589844 175.679688 C 159.042969 174.925781 158.515625 173.300781 157.914062 171.035156 Z M 205.847656 146.253906 C 205.644531 146.378906 205.636719 147.039062 205.03125 148.058594 C 204.242188 149.386719 203.066406 150.03125 202.457031 150.125 C 201.234375 150.3125 201.105469 149.96875 201.347656 151.417969 C 201.667969 153.339844 202.074219 154.65625 203.359375 155.558594 C 205.636719 157.15625 209.65625 155.570312 210.75 151.492188 C 211.554688 148.488281 211.300781 149.011719 209.808594 148.6875 C 208.050781 148.308594 207.011719 147.417969 205.847656 146.253906 Z M 195.066406 212.214844 C 192.585938 214.589844 189.632812 214.0625 189.742188 214.6875 C 190.640625 219.902344 195.527344 220.226562 198.613281 217.878906 C 200.035156 216.792969 201.328125 214.984375 201.71875 214 C 201.828125 213.722656 201.488281 213.78125 201.210938 213.734375 C 199.363281 213.398438 197.835938 211.773438 197.304688 210.109375 C 196.902344 208.839844 197.246094 210.128906 195.066406 212.214844 Z M 149.441406 153.039062 C 149.410156 153.335938 149.847656 154.457031 150.023438 154.847656 C 150.566406 156.039062 150.640625 155.910156 150.824219 156.300781 C 151.632812 158.035156 154.644531 159.3125 156.570312 158.375 C 158.226562 157.570312 160.046875 154.453125 160.164062 153.5 C 159.558594 153.296875 156.34375 153.257812 154.667969 148.953125 C 153.96875 147.164062 154.707031 148.308594 152.273438 150.972656 C 151.25 152.085938 150.269531 152.574219 149.441406 153.039062 Z M 213.621094 178.171875 C 212.769531 179.277344 211.527344 182.140625 208.679688 183.136719 C 208.242188 183.292969 208.21875 183.238281 208.324219 183.78125 C 208.492188 184.648438 209.011719 186.175781 209.671875 187.136719 C 210.3125 188.066406 210.691406 188.261719 211.203125 188.613281 C 212.957031 189.820312 216.125 187.792969 217.25 186.164062 C 217.910156 185.214844 219.179688 182.839844 218.644531 182.765625 C 218.476562 182.738281 216.183594 183.007812 215.011719 181.457031 C 213.929688 180.023438 213.820312 178.878906 213.621094 178.171875 Z M 153.605469 162.578125 C 153.128906 163.109375 152.492188 164.894531 150.765625 166.503906 C 148.792969 168.347656 147.660156 167.78125 147.796875 168.5625 C 148.105469 170.324219 148.398438 172.445312 149.601562 173.140625 C 152.929688 175.066406 156.351562 171.417969 157.339844 167.472656 C 157.472656 166.957031 156.605469 167.113281 155.46875 165.75 C 154.246094 164.28125 154.152344 163.621094 153.605469 162.578125 Z M 172.679688 194.921875 C 172.5 195.117188 170.609375 197.921875 168.363281 198.746094 C 166.867188 199.292969 166.71875 198.96875 166.882812 199.585938 C 167.410156 201.566406 168.082031 204.792969 171.179688 204.6875 C 174.082031 204.589844 176.546875 202.3125 177.460938 199.632812 C 177.65625 199.0625 177.273438 199.484375 175.753906 198.707031 C 173.410156 197.507812 172.921875 195.3125 172.679688 194.921875 Z M 186.105469 139 C 185.882812 139.304688 184.863281 141.234375 183.210938 141.859375 C 182.144531 142.257812 182.71875 142.101562 182.699219 143.605469 C 182.679688 144.667969 182.933594 146.519531 183.621094 147.828125 C 184.398438 149.304688 186.011719 149.804688 186.804688 149.546875 C 188.441406 149.023438 190.339844 147.367188 190.707031 146.535156 C 191.144531 145.539062 191.109375 145.832031 191.652344 143.609375 C 191.863281 142.75 191.207031 143.480469 189.707031 142.925781 C 189.285156 142.765625 188.199219 142.449219 187.589844 141.617188 C 186.03125 139.492188 186.511719 139.597656 186.105469 139 Z M 201.347656 179.316406 C 201.203125 179.617188 201.085938 180.0625 200.765625 180.496094 C 200.761719 180.503906 200.425781 181.117188 200.207031 181.449219 C 199.113281 183.097656 198.007812 183.5 196.515625 184.007812 C 196.199219 184.117188 196.179688 184.171875 196.335938 185.175781 C 196.546875 186.523438 196.835938 187.710938 197.742188 188.601562 C 198.375 189.222656 199.277344 189.789062 200.167969 189.792969 C 201.757812 189.800781 203.394531 188.585938 204.355469 187.277344 C 205.074219 186.300781 205.34375 185.535156 205.773438 184.394531 C 206.085938 183.558594 206.109375 183.480469 205.878906 183.410156 C 205.507812 183.296875 203.972656 183.113281 202.609375 181.417969 C 201.703125 180.292969 201.652344 179.722656 201.347656 179.316406 Z M 180.320312 187.898438 C 179.910156 188.078125 179.933594 188.992188 178.21875 190.808594 C 176.902344 192.203125 175.34375 192.394531 174.457031 192.644531 C 174.191406 192.722656 174.226562 192.757812 174.300781 193.632812 C 174.632812 197.441406 179.246094 199.457031 183.429688 195.160156 C 184.28125 194.285156 184.683594 193.230469 185.011719 192.574219 C 185.425781 191.734375 181.992188 193.050781 180.320312 187.898438 Z M 219.835938 185.421875 C 219.523438 185.507812 219.414062 186.671875 217.488281 188.578125 C 216.96875 189.089844 214.902344 190.382812 213.710938 190.613281 C 213.335938 190.6875 213.390625 190.882812 213.089844 191.980469 C 213.003906 192.304688 213.050781 192.457031 213.402344 193.519531 C 214.019531 195.375 216.941406 196.292969 219.234375 194.605469 C 219.238281 194.597656 221.214844 193.578125 222.515625 191.882812 C 222.925781 191.351562 223.542969 190.328125 223.589844 189.664062 C 223.605469 189.421875 223.347656 189.472656 223.027344 189.394531 C 220.59375 188.785156 220.089844 185.59375 219.835938 185.421875 Z M 161.195312 155.835938 C 161.011719 155.925781 159.863281 158.210938 158.234375 159.457031 C 157.136719 160.300781 156.054688 160.363281 155.121094 160.484375 C 154.773438 160.53125 154.941406 160.757812 155.089844 161.230469 C 156.757812 166.65625 160.574219 167.136719 163.074219 163.777344 C 163.484375 163.226562 165.730469 159.652344 165.089844 159.421875 C 164.839844 159.332031 163.550781 159.140625 162.5 158.042969 C 161.726562 157.238281 161.449219 156.433594 161.195312 155.835938 Z M 151.121094 179.335938 C 150.335938 180.574219 149.339844 182.914062 146.859375 183.960938 C 145.25 184.640625 145.382812 183.710938 146.316406 187.335938 C 146.535156 188.1875 146.730469 188.578125 147.097656 188.929688 C 149.164062 190.910156 149.945312 190.808594 151.328125 189.925781 C 152.804688 188.988281 154.941406 184.851562 155.121094 184.34375 C 154.90625 184.199219 154.109375 184.238281 153.222656 183.511719 C 151.457031 182.066406 151.417969 179.867188 151.121094 179.335938 Z M 165.542969 201.472656 C 165.347656 201.542969 163.753906 204.121094 161.707031 205.117188 C 160.113281 205.898438 160.621094 205.335938 160.625 206.714844 C 160.628906 207.585938 161.105469 209.972656 161.988281 210.816406 C 163.375 212.140625 166.304688 212.179688 168.71875 208.753906 C 169.3125 207.90625 169.773438 207.070312 169.949219 206.667969 C 170.199219 206.101562 169.6875 206.632812 167.789062 205.269531 C 166.535156 204.367188 166.023438 202.855469 165.542969 201.472656 Z M 158.417969 205.855469 C 158.285156 205.738281 157.644531 205.625 157.109375 205.40625 C 156.308594 205.082031 155.4375 204.207031 155.191406 203.757812 C 153.886719 201.347656 154.128906 200.484375 153.636719 201.285156 C 152.769531 202.691406 150.835938 204.167969 149.308594 204.644531 C 149.1875 204.683594 149.101562 204.746094 149.085938 204.878906 C 148.886719 206.902344 149.042969 209.933594 150.992188 210.46875 C 152.242188 210.8125 154.027344 210.625 155.492188 209.660156 C 156.640625 208.902344 157.917969 206.925781 158.417969 205.855469 Z M 144.3125 186.976562 C 144.039062 187.152344 142.828125 189.742188 140.84375 190.828125 C 139.964844 191.304688 139.046875 191.503906 138.773438 191.605469 C 138.207031 191.820312 139.378906 194.367188 139.675781 194.90625 C 139.855469 195.230469 140.582031 195.953125 141.351562 196.328125 C 142.050781 196.667969 142.253906 196.589844 143.027344 196.707031 C 143.53125 196.777344 143.714844 196.640625 144.496094 196.503906 C 145.773438 196.285156 147.613281 194.976562 148.613281 192.46875 C 148.792969 192.019531 148.363281 192.300781 146.726562 191.023438 C 144.257812 189.09375 144.769531 187.347656 144.3125 186.976562 Z M 155.96875 186.667969 C 155.304688 187.667969 154.179688 189.871094 152.886719 190.992188 C 151.617188 192.085938 150.8125 191.9375 150.878906 192.300781 C 151.183594 194 152.019531 196.542969 153.738281 196.914062 C 156.726562 197.558594 158.714844 196.257812 160.011719 193.496094 C 160.476562 192.5 160.300781 193.089844 158.996094 191.917969 C 156.589844 189.765625 156.164062 186.875 155.96875 186.667969 Z M 170.351562 209.636719 C 169.585938 210.226562 168.59375 212.839844 164.820312 213.398438 C 164.597656 213.433594 164.4375 213.515625 164.554688 213.941406 C 164.664062 214.339844 164.070312 216.925781 166.832031 218.75 C 167.46875 219.171875 167.867188 219.492188 168.671875 219.386719 C 170.804688 219.105469 172.847656 216.511719 173.878906 214.617188 C 174.265625 213.910156 173.480469 214.339844 172.207031 213.085938 C 170.957031 211.859375 170.5625 210.191406 170.351562 209.636719 Z M 211.980469 194.75 C 211.78125 194.78125 211.867188 194.847656 211.011719 196.136719 C 210.34375 197.140625 209.09375 198.273438 208.609375 198.554688 C 206.5 199.765625 206.082031 199.257812 206.125 199.671875 C 206.242188 200.878906 206.953125 202.84375 208.117188 203.601562 C 209.453125 204.472656 212.613281 203.070312 213.941406 201.605469 C 214.738281 200.730469 215.890625 198.851562 216.269531 197.476562 C 216.355469 197.167969 216.027344 197.261719 215.65625 197.207031 C 213.066406 196.828125 212.191406 195 211.980469 194.75 Z M 211.675781 170.53125 C 212.707031 174.808594 219.019531 172.8125 219.9375 167.851562 C 220.050781 167.234375 219.714844 167.382812 218.9375 167.226562 C 217.523438 166.941406 215.945312 166.402344 214.832031 165.488281 C 213.929688 164.746094 214.402344 164.476562 213.605469 164.703125 C 212.976562 164.886719 212.355469 165.109375 211.6875 165.148438 C 211.476562 165.160156 211.410156 165.246094 211.390625 165.457031 C 211.191406 167.636719 211.121094 168.238281 211.675781 170.53125 Z M 167.925781 187.5 C 167.714844 187.871094 166.664062 190.292969 165.632812 191.257812 C 163.148438 193.578125 162.347656 192.578125 162.46875 193.292969 C 162.621094 194.195312 162.757812 195.03125 163.160156 195.746094 C 164.523438 198.160156 168.511719 198.636719 171.886719 192.757812 C 172.320312 192.003906 171.453125 192.558594 169.988281 191.050781 C 169.351562 190.390625 168.917969 189.933594 168.589844 189.09375 C 167.988281 187.550781 168.070312 187.558594 167.925781 187.5 Z M 204.148438 143.503906 C 203.898438 143.4375 204.003906 143.570312 203.140625 143.839844 C 202.671875 143.984375 201.410156 144.152344 200.910156 144.003906 C 197.996094 143.128906 197.992188 140.910156 197.402344 139.683594 C 196.738281 140.292969 195.675781 141.566406 194.578125 142.09375 C 193.769531 142.480469 193.792969 142.511719 193.835938 142.699219 C 194.1875 144.242188 195.378906 145.585938 196.632812 146.546875 C 198.523438 148 198.816406 147.933594 200.117188 148.296875 C 204.199219 149.429688 204.503906 144.285156 204.148438 143.503906 Z M 161.023438 195.472656 C 160.628906 195.953125 159.070312 198.6875 155.683594 198.832031 C 155.519531 198.839844 155.367188 198.871094 155.382812 199.035156 C 155.460938 199.746094 155.792969 200.761719 156.035156 201.4375 C 156.558594 202.917969 157.351562 203.945312 158.921875 204.035156 C 162.164062 204.21875 164.800781 199.328125 164.675781 199.070312 C 164.453125 198.953125 162.023438 198.28125 161.1875 195.699219 C 161.160156 195.613281 161.148438 195.515625 161.023438 195.472656 Z M 153.164062 198.667969 C 152.558594 198.324219 150.875 198 149.707031 194.84375 C 149.683594 194.785156 149.644531 194.730469 149.59375 194.644531 C 147.894531 196.875 147.171875 197.601562 144.558594 198.367188 C 144.105469 198.5 144.601562 199.960938 144.789062 200.398438 C 145.179688 201.308594 145.5 203.617188 147.484375 203.277344 C 150.226562 202.808594 151.878906 201.109375 153.164062 198.667969 Z M 159.035156 208.417969 C 158.585938 208.988281 158.332031 209.542969 157.773438 210.011719 C 157.503906 210.230469 157.582031 210.347656 157.125 210.679688 C 154.414062 212.675781 154.027344 211.929688 154.070312 212.421875 C 154.175781 213.566406 155.359375 216 156.417969 216.421875 C 156.6875 216.527344 156.640625 216.742188 157.324219 216.90625 C 158.441406 217.171875 159.824219 216.546875 160.519531 215.78125 C 161.179688 215.054688 161.351562 215.117188 162.238281 213.25 C 162.328125 213.0625 162.089844 212.992188 161.832031 212.871094 C 160.042969 212.007812 159.503906 210.210938 159.035156 208.417969 Z M 159.035156 208.417969 " fill-opacity="1" fill-rule="nonzero"/></g></svg>