<svg xmlns="http://www.w3.org/2000/svg" xmlns:xlink="http://www.w3.org/1999/xlink" width="480" zoomAndPan="magnify" viewBox="0 0 360 359.999987" height="480" preserveAspectRatio="xMidYMid meet" version="1.0"><defs><clipPath id="33182761a1"><path d="M 126 126 L 234 126 L 234 234 L 126 234 Z M 126 126 " clip-rule="nonzero"/></clipPath><clipPath id="17f7da6b3f"><path d="M 180 126 C 150.175781 126 126 150.175781 126 180 C 126 209.824219 150.175781 234 180 234 C 209.824219 234 234 209.824219 234 180 C 234 150.175781 209.824219 126 180 126 Z M 180 126 " clip-rule="nonzero"/></clipPath><clipPath id="4906ef344f"><path d="M 131.546875 131.546875 L 228.453125 131.546875 L 228.453125 228.453125 L 131.546875 228.453125 Z M 131.546875 131.546875 " clip-rule="nonzero"/></clipPath><clipPath id="7045726177"><path d="M 180 131.546875 C 153.238281 131.546875 131.546875 153.238281 131.546875 180 C 131.546875 206.761719 153.238281 228.453125 180 228.453125 C 206.761719 228.453125 228.453125 206.761719 228.453125 180 C 228.453125 153.238281 206.761719 131.546875 180 131.546875 Z M 180 131.546875 " clip-rule="nonzero"/></clipPath><clipPath id="c3c12a970e"><path d="M 177 182 L 183 182 L 183 223.5625 L 177 223.5625 Z M 177 182 " clip-rule="nonzero"/></clipPath><clipPath id="444d0917dc"><path d="M 160.414062 136.5625 L 199.414062 136.5625 L 199.414062 157 L 160.414062 157 Z M 160.414062 136.5625 " clip-rule="nonzero"/></clipPath></defs><g clip-path="url(#33182761a1)"><g clip-path="url(#17f7da6b3f)"><path fill="#fdccbc" d="M 126 126 L 234 126 L 234 234 L 126 234 Z M 126 126 " fill-opacity="1" fill-rule="nonzero"/></g></g><g clip-path="url(#4906ef344f)"><g clip-path="url(#7045726177)"><path fill="#ffe3da" d="M 131.546875 131.546875 L 228.453125 131.546875 L 228.453125 228.453125 L 131.546875 228.453125 Z M 131.546875 131.546875 " fill-opacity="1" fill-rule="nonzero"/></g></g><g clip-path="url(#c3c12a970e)"><path fill="#967557" d="M 182.632812 223.378906 L 177.363281 223.378906 L 177.363281 182.039062 L 182.632812 182.039062 L 182.632812 223.378906 " fill-opacity="1" fill-rule="nonzero"/></g><path fill="#ff5757" d="M 193.164062 182.527344 L 167.261719 182.527344 L 164.277344 152.300781 L 180.140625 138.0625 L 195.722656 152.300781 L 193.164062 182.527344 " fill-opacity="1" fill-rule="nonzero"/><g clip-path="url(#444d0917dc)"><path fill="#967557" d="M 164.355469 156.164062 L 180.25 140.546875 L 195.675781 156.242188 L 199.582031 156.242188 L 180.285156 136.601562 L 160.414062 156.128906 L 164.355469 156.164062 " fill-opacity="1" fill-rule="nonzero"/></g><path fill="#603814" d="M 186.164062 161.53125 C 186.164062 164.9375 183.402344 167.699219 180 167.699219 C 176.59375 167.699219 173.832031 164.9375 173.832031 161.53125 C 173.832031 158.128906 176.59375 155.367188 180 155.367188 C 183.402344 155.367188 186.164062 158.128906 186.164062 161.53125 " fill-opacity="1" fill-rule="nonzero"/><path stroke-linecap="butt" transform="matrix(0.0238224, 0, 0, -0.0238224, 120.44003, 230.967023)" fill="none" stroke-linejoin="miter" d="M 2758.914586 2914.723252 C 2758.914586 2771.738222 2642.985209 2655.808845 2500.164152 2655.808845 C 2357.179121 2655.808845 2241.249744 2771.738222 2241.249744 2914.723252 C 2241.249744 3057.544309 2357.179121 3173.473686 2500.164152 3173.473686 C 2642.985209 3173.473686 2758.914586 3057.544309 2758.914586 2914.723252 Z M 2758.914586 2914.723252 " stroke="#f05a28" stroke-width="30" stroke-opacity="1" stroke-miterlimit="4"/><path fill="#967557" d="M 190.980469 176.582031 C 191.554688 176.011719 192.808594 176.4375 192.808594 177.28125 C 192.808594 178.503906 190.539062 179.984375 190.539062 179.984375 C 190.539062 179.984375 188.269531 178.503906 188.269531 177.28125 C 188.269531 176.449219 189.410156 175.960938 190.070312 176.574219 C 190.390625 176.871094 190.539062 177.117188 190.539062 177.117188 C 190.539062 177.117188 190.664062 176.898438 190.980469 176.582031 " fill-opacity="1" fill-rule="nonzero"/><path fill="#967557" d="M 185.707031 176.582031 C 186.285156 176.011719 187.539062 176.4375 187.539062 177.28125 C 187.539062 178.503906 185.269531 179.984375 185.269531 179.984375 C 185.269531 179.984375 183 178.503906 183 177.28125 C 183 176.449219 184.140625 175.960938 184.800781 176.574219 C 185.121094 176.871094 185.269531 177.117188 185.269531 177.117188 C 185.269531 177.117188 185.390625 176.898438 185.707031 176.582031 " fill-opacity="1" fill-rule="nonzero"/><path fill="#967557" d="M 180.4375 176.582031 C 181.015625 176.011719 182.269531 176.4375 182.269531 177.28125 C 182.269531 178.503906 180 179.984375 180 179.984375 C 180 179.984375 177.726562 178.503906 177.726562 177.28125 C 177.726562 176.449219 178.867188 175.960938 179.527344 176.574219 C 179.851562 176.871094 180 177.117188 180 177.117188 C 180 177.117188 180.121094 176.898438 180.4375 176.582031 " fill-opacity="1" fill-rule="nonzero"/><path fill="#967557" d="M 175.167969 176.582031 C 175.746094 176.011719 176.996094 176.4375 176.996094 177.28125 C 176.996094 178.503906 174.726562 179.984375 174.726562 179.984375 C 174.726562 179.984375 172.457031 178.503906 172.457031 177.28125 C 172.457031 176.449219 173.597656 175.960938 174.257812 176.574219 C 174.578125 176.871094 174.726562 177.117188 174.726562 177.117188 C 174.726562 177.117188 174.851562 176.898438 175.167969 176.582031 " fill-opacity="1" fill-rule="nonzero"/><path fill="#967557" d="M 169.898438 176.582031 C 170.472656 176.011719 171.726562 176.4375 171.726562 177.28125 C 171.726562 178.503906 169.457031 179.984375 169.457031 179.984375 C 169.457031 179.984375 167.1875 178.503906 167.1875 177.28125 C 167.1875 176.449219 168.328125 175.960938 168.988281 176.574219 C 169.308594 176.871094 169.457031 177.117188 169.457031 177.117188 C 169.457031 177.117188 169.578125 176.898438 169.898438 176.582031 " fill-opacity="1" fill-rule="nonzero"/></svg>