<svg xmlns="http://www.w3.org/2000/svg" xmlns:xlink="http://www.w3.org/1999/xlink" width="480" zoomAndPan="magnify" viewBox="0 0 360 359.999987" height="480" preserveAspectRatio="xMidYMid meet" version="1.0"><defs><clipPath id="14699e5963"><path d="M 126 126 L 234 126 L 234 234 L 126 234 Z M 126 126 " clip-rule="nonzero"/></clipPath><clipPath id="7e468d0007"><path d="M 180 126 C 150.175781 126 126 150.175781 126 180 C 126 209.824219 150.175781 234 180 234 C 209.824219 234 234 209.824219 234 180 C 234 150.175781 209.824219 126 180 126 Z M 180 126 " clip-rule="nonzero"/></clipPath><clipPath id="7f001e4cb3"><path d="M 131.546875 131.546875 L 228.453125 131.546875 L 228.453125 228.453125 L 131.546875 228.453125 Z M 131.546875 131.546875 " clip-rule="nonzero"/></clipPath><clipPath id="cfd7707b68"><path d="M 180 131.546875 C 153.238281 131.546875 131.546875 153.238281 131.546875 180 C 131.546875 206.761719 153.238281 228.453125 180 228.453125 C 206.761719 228.453125 228.453125 206.761719 228.453125 180 C 228.453125 153.238281 206.761719 131.546875 180 131.546875 Z M 180 131.546875 " clip-rule="nonzero"/></clipPath><clipPath id="6535d2bd85"><path d="M 149.394531 140.855469 L 207.894531 140.855469 L 207.894531 215.855469 L 149.394531 215.855469 Z M 149.394531 140.855469 " clip-rule="nonzero"/></clipPath></defs><g clip-path="url(#14699e5963)"><g clip-path="url(#7e468d0007)"><path fill="#f4d9db" d="M 126 126 L 234 126 L 234 234 L 126 234 Z M 126 126 " fill-opacity="1" fill-rule="nonzero"/></g></g><g clip-path="url(#7f001e4cb3)"><g clip-path="url(#cfd7707b68)"><path fill="#ffeaec" d="M 131.546875 131.546875 L 228.453125 131.546875 L 228.453125 228.453125 L 131.546875 228.453125 Z M 131.546875 131.546875 " fill-opacity="1" fill-rule="nonzero"/></g></g><g clip-path="url(#6535d2bd85)"><path fill="#d67503" d="M 203.566406 214.742188 C 203.242188 215.046875 203.003906 215.230469 202.582031 215.382812 C 202.199219 215.519531 201.792969 215.589844 201.371094 215.597656 C 200.433594 215.609375 199.554688 215.28125 198.726562 214.964844 C 198.453125 214.859375 198.300781 214.375 198.441406 214.179688 C 198.441406 214.175781 198.445312 214.175781 198.449219 214.171875 C 198.464844 214.140625 198.488281 214.109375 198.523438 214.082031 C 199.03125 213.730469 199.535156 213.386719 200.085938 213.082031 C 200.714844 212.738281 201.3125 212.332031 201.867188 211.875 C 202.367188 211.464844 202.988281 210.890625 202.882812 210.167969 C 202.820312 209.773438 202.554688 209.402344 202.324219 209.089844 C 202.039062 208.707031 201.699219 208.34375 201.316406 208.058594 C 200.9375 207.777344 200.511719 207.65625 200.058594 207.535156 C 199.609375 207.414062 199.15625 207.320312 198.699219 207.242188 C 196.980469 206.957031 195.230469 206.960938 193.503906 206.730469 C 191.203125 206.425781 189.03125 205.691406 186.976562 204.617188 C 186.0625 204.136719 185.234375 203.574219 184.847656 202.570312 C 184.5 201.667969 184.640625 200.640625 184.945312 199.75 C 185.570312 197.914062 186.773438 196.394531 188.1875 195.101562 C 191.101562 192.4375 194.621094 190.554688 197.832031 188.296875 C 199.054688 187.441406 200.386719 186.484375 201.257812 185.289062 C 201.941406 184.34375 202.484375 183.257812 202.683594 182.101562 C 202.882812 180.960938 202.628906 179.835938 202.105469 178.828125 C 201.421875 180.375 200.449219 181.789062 199.160156 182.957031 C 198.492188 183.5625 197.785156 184.121094 197.042969 184.632812 C 196.132812 186.804688 194.617188 188.699219 192.855469 190.242188 C 189.445312 193.226562 185.054688 195.078125 180.546875 195.472656 C 178.148438 195.683594 175.71875 195.535156 173.351562 195.101562 C 171.078125 194.683594 168.835938 193.976562 166.785156 192.886719 C 164.464844 192.007812 162.726562 191.304688 160.921875 189.59375 C 160.757812 189.5 160.253906 189.105469 160.09375 189.027344 C 158.804688 188.421875 157.75 187.296875 156.84375 186.210938 C 155.15625 184.183594 153.78125 181.921875 152.773438 179.484375 C 151.539062 176.503906 150.578125 173.042969 151.046875 169.71875 C 149.988281 167.304688 149.402344 164.671875 149.617188 162.070312 C 149.976562 157.714844 152.296875 153.609375 155.171875 150.410156 C 157.707031 147.585938 160.910156 145.410156 164.367188 143.867188 C 167.953125 142.265625 171.8125 141.296875 175.726562 141.003906 C 177.632812 140.863281 179.550781 140.882812 181.453125 141.097656 C 182.398438 141.207031 183.34375 141.355469 184.273438 141.558594 C 185.1875 141.753906 186.082031 141.988281 186.929688 142.382812 C 187.214844 142.503906 187.597656 142.589844 187.808594 142.726562 C 188.117188 142.925781 188.34375 143.203125 188.53125 143.515625 C 188.628906 143.675781 188.71875 143.839844 188.816406 144.003906 C 188.878906 144.109375 188.941406 144.214844 189.003906 144.316406 C 189.09375 144.457031 189.210938 144.605469 189.25 144.765625 C 189.265625 144.824219 189.265625 144.878906 189.308594 144.941406 C 189.546875 144.96875 189.738281 145 189.980469 145.039062 C 190.09375 145.011719 195.179688 146.574219 197.054688 148.28125 C 198.265625 149.375 199.1875 150.773438 200.015625 152.167969 C 200.445312 152.890625 200.84375 153.636719 201.175781 154.410156 C 201.542969 155.273438 201.828125 156.175781 202.101562 157.070312 C 202.683594 158.976562 203.113281 160.972656 203.035156 162.976562 C 202.984375 164.203125 202.726562 165.421875 202.296875 166.570312 C 202.402344 166.765625 202.425781 166.925781 202.46875 167.09375 C 203.011719 169.269531 203.433594 171.214844 203.316406 173.460938 C 203.4375 173.566406 203.539062 173.691406 203.617188 173.820312 C 203.972656 174.414062 204.265625 174.960938 204.503906 175.613281 C 205.140625 177.347656 205.503906 179.175781 205.53125 181.023438 C 205.550781 182.023438 205.472656 183.0625 205.15625 184.019531 C 204.863281 184.90625 204.371094 185.738281 203.839844 186.5 C 201.542969 189.769531 198.046875 191.964844 194.75 194.105469 C 193.199219 195.109375 191.589844 196.097656 190.269531 197.398438 C 189.820312 197.839844 189.429688 198.339844 189.082031 198.863281 C 188.5625 199.65625 187.925781 200.945312 188.878906 201.707031 C 189.59375 202.277344 190.554688 202.578125 191.421875 202.824219 C 192.484375 203.121094 193.578125 203.304688 194.667969 203.453125 C 197.363281 203.816406 200.117188 203.941406 202.699219 204.90625 C 203.46875 205.195312 204.203125 205.578125 204.882812 206.042969 C 205.757812 206.644531 206.59375 207.421875 206.957031 208.429688 C 207.800781 210.765625 204.875 213.625 203.566406 214.742188 Z M 203.566406 214.742188 " fill-opacity="1" fill-rule="nonzero"/></g><path fill="#f4900c" d="M 201.609375 214.683594 C 201.574219 214.6875 201.582031 214.6875 201.609375 214.683594 Z M 204.609375 206.824219 C 203.558594 206.070312 202.378906 205.589844 201.152344 205.253906 L 199.480469 204.878906 C 199.113281 204.8125 198.75 204.75 198.386719 204.699219 C 196.109375 204.371094 193.789062 204.246094 191.554688 203.671875 C 190.660156 203.441406 189.75 203.140625 188.945312 202.683594 C 188.140625 202.230469 187.53125 201.578125 187.578125 200.601562 C 187.632812 199.488281 188.296875 198.472656 188.96875 197.628906 C 189.507812 196.949219 190.128906 196.347656 190.804688 195.808594 C 192.144531 194.742188 193.613281 193.839844 195.046875 192.910156 C 198.230469 190.84375 201.671875 188.605469 203.644531 185.257812 C 204.101562 184.484375 204.441406 183.691406 204.589844 182.804688 C 204.753906 181.820312 204.730469 180.800781 204.632812 179.816406 C 204.460938 178.074219 204.035156 176.246094 203.222656 174.671875 C 203.089844 175.789062 202.835938 176.886719 202.460938 177.933594 C 202.519531 177.964844 202.574219 178.007812 202.613281 178.078125 C 202.964844 178.664062 203.253906 179.300781 203.410156 179.96875 C 203.941406 182.195312 203.007812 184.550781 201.554688 186.238281 C 200.472656 187.496094 199.066406 188.472656 197.707031 189.402344 C 196.039062 190.539062 194.324219 191.601562 192.652344 192.734375 C 191.046875 193.824219 189.453125 194.976562 188.09375 196.367188 C 187.507812 196.964844 186.972656 197.609375 186.539062 198.328125 C 185.996094 199.234375 185.476562 200.289062 185.460938 201.371094 C 185.445312 202.246094 185.855469 202.996094 186.582031 203.484375 C 187.132812 203.859375 187.757812 204.148438 188.363281 204.429688 C 188.933594 204.695312 189.515625 204.933594 190.113281 205.140625 C 191.992188 205.789062 193.925781 206.03125 195.898438 206.167969 C 196.792969 206.230469 197.6875 206.296875 198.578125 206.425781 C 199.476562 206.558594 200.476562 206.710938 201.300781 207.113281 C 202.175781 207.542969 202.9375 208.4375 203.382812 209.292969 C 203.765625 210.035156 203.75 210.828125 203.253906 211.515625 C 202.28125 212.859375 200.632812 213.359375 199.25 214.171875 C 199.261719 214.179688 199.277344 214.183594 199.289062 214.1875 C 199.914062 214.425781 200.589844 214.6875 201.28125 214.695312 C 201.351562 214.695312 201.421875 214.695312 201.492188 214.691406 C 201.53125 214.691406 201.570312 214.6875 201.609375 214.683594 C 201.617188 214.683594 201.621094 214.683594 201.640625 214.679688 C 201.796875 214.65625 201.953125 214.625 202.097656 214.578125 C 202.035156 214.597656 202.210938 214.527344 202.230469 214.519531 C 202.296875 214.488281 202.367188 214.460938 202.433594 214.425781 C 202.515625 214.382812 202.679688 214.296875 202.808594 214.226562 C 202.863281 214.199219 202.847656 214.191406 202.972656 214.121094 C 203.441406 213.738281 204.433594 212.664062 204.816406 212.289062 C 205.542969 211.574219 206.320312 210.65625 206.367188 209.589844 C 206.425781 208.386719 205.515625 207.476562 204.609375 206.824219 Z M 170.183594 158.398438 C 169.894531 158.242188 169.621094 158.019531 169.378906 157.835938 C 168.949219 157.511719 168.542969 157.148438 168.171875 156.757812 C 167.929688 156.503906 167.695312 156.230469 167.484375 155.945312 C 167.496094 156.226562 167.515625 156.507812 167.542969 156.789062 C 167.640625 157.757812 167.855469 158.707031 168.144531 159.636719 C 168.371094 159.492188 168.617188 159.375 168.851562 159.238281 C 169.160156 159.0625 169.46875 158.875 169.769531 158.679688 C 169.910156 158.589844 170.046875 158.492188 170.183594 158.398438 Z M 179.359375 159.6875 C 178.253906 160.804688 177.035156 161.8125 175.753906 162.71875 C 174.269531 163.773438 172.703125 164.726562 171.019531 165.425781 C 171.21875 165.710938 171.421875 165.988281 171.628906 166.261719 C 172.152344 166.144531 172.691406 166.082031 173.21875 165.980469 C 173.839844 165.859375 174.453125 165.703125 175.058594 165.511719 C 176.078125 165.191406 177.074219 164.785156 178.007812 164.273438 C 180.949219 162.652344 183.160156 160.078125 184.738281 157.148438 C 185.695312 155.367188 186.492188 153.457031 187.027344 151.503906 C 187.554688 149.582031 187.679688 147.617188 187.535156 145.632812 C 187.304688 145.628906 187.078125 145.617188 186.847656 145.621094 C 186.789062 145.621094 186.734375 145.609375 186.691406 145.589844 C 186.664062 145.589844 186.636719 145.59375 186.605469 145.589844 C 186.492188 145.5625 186.378906 145.53125 186.265625 145.503906 C 186.210938 147.546875 185.75 149.554688 184.96875 151.441406 C 183.695312 154.515625 181.699219 157.328125 179.359375 159.6875 Z M 179.171875 152.4375 C 178.359375 153.683594 177.511719 154.894531 176.53125 156.015625 C 175.410156 157.292969 174.160156 158.453125 172.8125 159.484375 C 172.140625 160 171.445312 160.480469 170.722656 160.921875 C 170.195312 161.25 169.601562 161.625 168.992188 161.851562 C 169.210938 162.335938 169.445312 162.8125 169.699219 163.28125 C 169.707031 163.273438 169.710938 163.265625 169.71875 163.257812 C 171.1875 162.105469 172.839844 161.191406 174.351562 160.09375 C 176.765625 158.332031 178.933594 156.125 180.515625 153.582031 C 182.164062 150.929688 183.027344 147.90625 183.269531 144.808594 C 182.535156 144.667969 181.792969 144.546875 181.046875 144.46875 C 181.191406 146.164062 181.148438 147.914062 180.621094 149.546875 C 180.289062 150.585938 179.765625 151.53125 179.171875 152.4375 Z M 184.035156 144.960938 C 183.894531 146.792969 183.5625 148.609375 182.949219 150.339844 C 181.957031 153.132812 180.28125 155.597656 178.226562 157.71875 C 177.0625 158.917969 175.777344 159.980469 174.40625 160.9375 C 173.007812 161.910156 171.539062 162.871094 170.015625 163.644531 C 169.984375 163.664062 169.949219 163.667969 169.914062 163.667969 C 170.171875 164.121094 170.449219 164.566406 170.734375 165 C 172.445312 163.917969 174.203125 162.925781 175.8125 161.699219 C 178.207031 159.871094 180.25 157.636719 181.933594 155.148438 C 183.882812 152.269531 185.28125 148.980469 185.367188 145.464844 C 185.367188 145.398438 185.382812 145.34375 185.40625 145.289062 C 185.300781 145.261719 185.195312 145.238281 185.089844 145.210938 C 184.742188 145.121094 184.390625 145.039062 184.035156 144.960938 Z M 174.789062 155.488281 C 173.886719 156.53125 172.878906 157.480469 171.792969 158.332031 C 171.238281 158.761719 170.664062 159.171875 170.070312 159.550781 C 169.765625 159.742188 169.460938 159.925781 169.144531 160.097656 C 168.910156 160.230469 168.675781 160.371094 168.421875 160.457031 C 168.5 160.675781 168.585938 160.894531 168.671875 161.113281 C 168.886719 160.976562 169.109375 160.855469 169.324219 160.726562 C 169.722656 160.488281 170.117188 160.253906 170.507812 160.003906 C 171.28125 159.515625 172.027344 158.984375 172.742188 158.410156 C 174.011719 157.390625 175.179688 156.242188 176.226562 154.996094 C 177.09375 153.960938 177.851562 152.84375 178.574219 151.707031 C 179.136719 150.828125 179.605469 149.910156 179.878906 148.898438 C 180.269531 147.441406 180.273438 145.914062 180.140625 144.417969 C 180.140625 144.410156 180.144531 144.402344 180.144531 144.390625 C 179.644531 144.355469 179.144531 144.328125 178.644531 144.316406 C 178.988281 145.722656 179.042969 147.160156 178.675781 148.574219 C 178.015625 151.132812 176.507812 153.511719 174.789062 155.488281 Z M 176.914062 168.726562 C 176.117188 169.015625 175.183594 169.257812 174.300781 169.207031 C 175.257812 170.097656 176.296875 170.902344 177.410156 171.589844 C 177.703125 171.769531 178 171.9375 178.304688 172.101562 C 179.488281 171.160156 180.5625 170.015625 181.421875 168.773438 C 182.214844 167.625 182.871094 166.335938 183.15625 164.960938 C 182.183594 165.769531 181.15625 166.515625 180.074219 167.167969 C 179.070312 167.773438 178.019531 168.332031 176.914062 168.726562 Z M 175.890625 144.382812 C 175.625 145.527344 175.605469 146.726562 175.878906 147.871094 C 176.019531 148.476562 176.238281 149.054688 176.546875 149.59375 C 176.695312 149.859375 176.871094 150.109375 177.046875 150.359375 C 177.050781 150.363281 177.054688 150.371094 177.0625 150.378906 C 177.398438 149.644531 177.6875 148.886719 177.867188 148.105469 C 178.15625 146.839844 178.050781 145.558594 177.714844 144.3125 C 177.105469 144.316406 176.5 144.339844 175.890625 144.382812 Z M 178.910156 172.421875 C 179.421875 172.675781 179.949219 172.902344 180.484375 173.097656 C 180.492188 173.101562 180.496094 173.101562 180.5 173.105469 C 181.234375 172.363281 182.019531 171.683594 182.722656 170.90625 C 185.003906 168.375 186.355469 165.042969 186.480469 161.644531 C 186.066406 162.140625 185.640625 162.628906 185.191406 163.09375 C 184.855469 163.4375 184.507812 163.773438 184.152344 164.097656 C 184.167969 164.148438 184.179688 164.199219 184.171875 164.25 C 183.984375 166.035156 183.246094 167.722656 182.21875 169.183594 C 181.324219 170.453125 180.226562 171.589844 178.910156 172.421875 Z M 167.5625 153.191406 C 167.523438 153.582031 167.5 153.96875 167.484375 154.359375 C 167.761719 155.085938 168.261719 155.726562 168.792969 156.28125 C 169.152344 156.65625 169.542969 157 169.945312 157.324219 C 170.210938 157.542969 170.523438 157.738281 170.773438 157.984375 C 171.027344 157.796875 171.273438 157.609375 171.515625 157.414062 C 171.6875 157.273438 171.855469 157.125 172.023438 156.980469 C 171.394531 156.648438 170.890625 155.972656 170.488281 155.433594 C 169.195312 153.707031 168.445312 151.527344 168.328125 149.34375 C 167.949219 150.601562 167.695312 151.898438 167.5625 153.191406 Z M 174.167969 144.554688 C 174.027344 144.574219 173.886719 144.597656 173.746094 144.617188 C 173.742188 144.628906 173.742188 144.636719 173.738281 144.648438 C 173.074219 146.183594 173.085938 147.867188 173.597656 149.441406 C 173.828125 150.140625 174.125 150.820312 174.519531 151.441406 C 174.699219 151.726562 174.902344 151.996094 175.125 152.25 C 175.292969 152.441406 175.527344 152.632812 175.675781 152.855469 C 175.996094 152.375 176.296875 151.878906 176.570312 151.371094 C 176.601562 151.3125 176.628906 151.253906 176.660156 151.195312 C 176.535156 151.089844 176.425781 150.964844 176.332031 150.855469 C 176.109375 150.597656 175.914062 150.308594 175.746094 150.011719 C 175.414062 149.417969 175.164062 148.773438 175.007812 148.109375 C 174.726562 146.917969 174.710938 145.667969 174.949219 144.46875 C 174.691406 144.496094 174.429688 144.519531 174.167969 144.554688 Z M 191.28125 147.167969 C 193.441406 148.191406 195.195312 149.941406 196.378906 152.007812 C 197.441406 153.867188 198.058594 155.972656 198.191406 158.109375 C 198.316406 160.140625 197.9375 162.164062 197.257812 164.074219 C 196.507812 166.1875 195.425781 168.1875 194.121094 170.007812 C 193.433594 170.96875 192.6875 171.882812 191.875 172.742188 C 191.449219 173.195312 191 173.660156 190.515625 174.082031 C 191.101562 173.933594 191.691406 173.777344 192.277344 173.605469 C 192.601562 173.277344 192.941406 172.960938 193.273438 172.636719 C 193.722656 172.191406 194.171875 171.746094 194.597656 171.277344 C 195.429688 170.367188 196.195312 169.394531 196.882812 168.367188 C 199.105469 165.054688 200.75 161.066406 200.324219 157.007812 C 199.902344 153.027344 197.789062 149.0625 194.105469 147.320312 C 193.933594 147.238281 193.894531 147.191406 193.6875 147.054688 C 192.785156 146.621094 191.835938 146.300781 190.863281 146.066406 C 191.007812 146.417969 191.128906 146.78125 191.222656 147.152344 C 191.242188 147.160156 191.261719 147.15625 191.28125 147.167969 Z M 192.808594 179.617188 C 193.132812 179.445312 193.464844 179.273438 193.789062 179.097656 C 194.785156 178.554688 195.597656 177.871094 196.222656 176.914062 C 197.15625 175.484375 197.59375 173.78125 197.859375 172.101562 C 197.835938 172.121094 197.8125 172.140625 197.785156 172.15625 C 196.753906 172.835938 195.625 173.375 194.464844 173.804688 C 194.46875 173.835938 194.472656 173.863281 194.46875 173.894531 C 194.359375 174.644531 194.210938 175.367188 194.007812 176.097656 C 193.675781 177.28125 193.277344 178.460938 192.808594 179.617188 Z M 164.722656 147.585938 C 164.71875 147.648438 164.703125 147.714844 164.664062 147.785156 C 164.476562 148.105469 164.300781 148.429688 164.132812 148.757812 C 162.769531 151.429688 162.023438 154.414062 161.867188 157.402344 C 161.710938 160.390625 162.132812 163.417969 163.214844 166.214844 C 164.277344 168.957031 166.039062 171.371094 168.226562 173.316406 C 170.394531 175.242188 172.976562 176.695312 175.734375 177.578125 C 177.117188 178.019531 178.546875 178.324219 179.996094 178.464844 C 180.722656 178.535156 181.457031 178.566406 182.1875 178.554688 C 182.90625 178.546875 183.625 178.464844 184.34375 178.484375 C 184.078125 178.0625 183.859375 177.625 183.683594 177.164062 C 183.65625 177.175781 183.636719 177.1875 183.605469 177.195312 C 182.191406 177.496094 180.621094 177.25 179.230469 176.933594 C 177.828125 176.613281 176.472656 176.105469 175.191406 175.457031 C 170.425781 173.035156 166.804688 168.613281 165.324219 163.488281 C 163.777344 158.140625 164.242188 152.261719 165.898438 146.988281 C 165.71875 147.074219 165.539062 147.15625 165.363281 147.246094 C 165.148438 147.351562 164.9375 147.472656 164.722656 147.585938 Z M 200.339844 163.546875 C 199.589844 165.660156 198.507812 167.660156 197.203125 169.480469 C 196.515625 170.4375 195.765625 171.355469 194.957031 172.214844 C 194.734375 172.453125 194.5 172.695312 194.261719 172.933594 C 195.585938 172.421875 196.851562 171.78125 197.996094 170.917969 C 199.65625 169.664062 200.914062 167.941406 201.574219 165.980469 C 202.050781 164.554688 202.226562 163.074219 202.117188 161.574219 C 202.011719 160.125 201.675781 158.699219 201.246094 157.308594 C 201.253906 157.398438 201.265625 157.488281 201.273438 157.582031 C 201.398438 159.613281 201.019531 161.636719 200.339844 163.546875 Z M 192.453125 180.460938 C 191.972656 181.542969 191.433594 182.601562 190.828125 183.617188 C 191.855469 183.183594 192.875 182.75 193.84375 182.171875 C 195.050781 181.449219 196.171875 180.59375 197.179688 179.613281 C 198.011719 178.804688 198.847656 177.917969 199.410156 176.898438 C 200.585938 174.769531 200.679688 172.183594 200.417969 169.816406 C 199.925781 170.40625 199.371094 170.941406 198.769531 171.429688 C 198.738281 171.699219 198.765625 171.742188 198.746094 171.863281 C 198.570312 173.113281 198.386719 174.261719 197.941406 175.449219 C 197.429688 176.824219 196.660156 178.117188 195.496094 179.035156 C 194.644531 179.707031 193.644531 180.136719 192.617188 180.457031 C 192.558594 180.476562 192.503906 180.472656 192.453125 180.460938 Z M 171.503906 145.042969 C 171.285156 145.945312 171.109375 146.859375 171.042969 147.789062 C 170.941406 149.128906 171.078125 150.527344 171.675781 151.746094 C 171.980469 152.367188 172.375 152.9375 172.855469 153.4375 C 173.148438 153.742188 173.46875 154.027344 173.816406 154.269531 C 173.996094 154.394531 174.183594 154.5 174.355469 154.621094 C 174.679688 154.238281 174.980469 153.839844 175.273438 153.433594 C 174.972656 153.34375 174.703125 153.078125 174.5 152.871094 C 174.210938 152.578125 173.964844 152.242188 173.746094 151.894531 C 173.304688 151.199219 172.972656 150.421875 172.71875 149.636719 C 172.203125 148.03125 172.203125 146.363281 172.738281 144.785156 C 172.324219 144.859375 171.914062 144.945312 171.503906 145.042969 Z M 169.984375 145.4375 C 169.972656 145.480469 169.964844 145.519531 169.941406 145.5625 C 169.683594 146.015625 169.449219 146.484375 169.230469 146.960938 C 169.105469 147.714844 169.085938 148.484375 169.140625 149.246094 C 169.246094 150.664062 169.621094 152.078125 170.253906 153.351562 C 170.558594 153.972656 170.925781 154.574219 171.351562 155.121094 C 171.722656 155.59375 172.222656 155.996094 172.570312 156.492188 C 173 156.089844 173.417969 155.675781 173.8125 155.238281 C 173.613281 155.144531 173.425781 155.019531 173.242188 154.894531 C 172.792969 154.582031 172.382812 154.21875 172.019531 153.8125 C 171.003906 152.691406 170.410156 151.316406 170.214844 149.824219 C 170.015625 148.3125 170.207031 146.769531 170.527344 145.285156 C 170.347656 145.332031 170.164062 145.382812 169.984375 145.4375 Z M 165.273438 155.917969 C 165.222656 158.664062 165.546875 161.425781 166.421875 164.035156 C 167.234375 166.472656 168.566406 168.714844 170.300781 170.609375 C 171.996094 172.457031 174.042969 173.972656 176.328125 175.011719 C 177.433594 175.515625 178.601562 175.894531 179.796875 176.136719 C 180.386719 176.257812 180.980469 176.34375 181.582031 176.394531 C 182.210938 176.445312 182.839844 176.457031 183.46875 176.523438 C 183.300781 175.929688 183.207031 175.316406 183.1875 174.691406 C 182.015625 174.621094 180.828125 174.210938 179.761719 173.78125 C 178.519531 173.277344 177.332031 172.648438 176.222656 171.890625 C 174.195312 170.511719 172.433594 168.785156 170.945312 166.839844 C 169.304688 164.691406 167.976562 162.253906 167.207031 159.65625 C 166.675781 157.851562 166.503906 155.988281 166.597656 154.125 C 166.597656 154.117188 166.59375 154.113281 166.59375 154.105469 C 166.574219 154.015625 166.585938 153.945312 166.613281 153.875 C 166.648438 153.304688 166.707031 152.730469 166.792969 152.160156 C 167.113281 149.964844 167.765625 147.792969 168.785156 145.8125 C 168.125 146.039062 167.476562 146.289062 166.835938 146.566406 C 166.851562 146.628906 166.859375 146.699219 166.832031 146.78125 C 165.878906 149.730469 165.332031 152.816406 165.273438 155.917969 Z M 157.664062 153.328125 C 156.617188 154.613281 155.703125 156.050781 154.984375 157.578125 C 154.984375 157.605469 154.988281 157.636719 154.984375 157.664062 C 154.652344 159.507812 154.703125 161.414062 155.109375 163.242188 C 155.828125 166.484375 157.636719 169.441406 160.28125 171.464844 C 161.589844 172.464844 163.070312 173.246094 164.636719 173.757812 C 165.417969 174.011719 166.21875 174.203125 167.027344 174.332031 C 167.417969 174.390625 167.8125 174.433594 168.207031 174.476562 C 167.71875 174.070312 167.242188 173.652344 166.789062 173.203125 C 166.488281 172.90625 166.199219 172.59375 165.917969 172.277344 C 165.859375 172.304688 165.792969 172.3125 165.71875 172.292969 C 164.832031 172.035156 164.117188 171.480469 163.40625 170.914062 C 162.726562 170.371094 162.09375 169.777344 161.507812 169.136719 C 159.386719 166.808594 157.871094 163.878906 157.441406 160.746094 C 157.089844 158.167969 157.296875 155.46875 157.996094 152.941406 C 157.886719 153.070312 157.769531 153.195312 157.664062 153.328125 Z M 154.292969 174.921875 C 153.960938 174.523438 153.636719 174.109375 153.328125 173.6875 C 152.78125 172.929688 152.269531 172.121094 151.8125 171.28125 C 151.804688 172.195312 151.898438 173.117188 152.054688 174.011719 C 152.570312 176.933594 153.703125 179.757812 155.203125 182.3125 C 155.929688 183.550781 156.75 184.742188 157.695312 185.824219 C 157.945312 186.109375 158.203125 186.378906 158.46875 186.640625 C 158.359375 186.5 158.246094 186.355469 158.140625 186.210938 C 155.71875 182.910156 154.476562 178.960938 154.292969 174.921875 Z M 189.085938 157.890625 C 188.566406 158.804688 187.992188 159.683594 187.363281 160.527344 C 187.371094 160.558594 187.382812 160.585938 187.386719 160.621094 C 187.425781 161.746094 187.335938 162.875 187.125 163.984375 C 186.757812 165.914062 186.007812 167.785156 184.949219 169.441406 C 184.417969 170.28125 183.804688 171.074219 183.121094 171.796875 C 182.574219 172.375 181.933594 172.929688 181.230469 173.339844 C 181.730469 173.488281 182.234375 173.617188 182.738281 173.746094 C 183.824219 172.632812 184.972656 171.589844 186.011719 170.433594 C 187.960938 168.261719 189.652344 165.820312 190.363281 162.953125 C 191 160.394531 191.003906 157.667969 190.449219 155.085938 C 190.066406 156.050781 189.59375 156.988281 189.085938 157.890625 Z M 187.6875 152.445312 C 186.511719 156.183594 184.628906 159.910156 181.757812 162.632812 C 180.589844 163.738281 179.25 164.691406 177.800781 165.390625 C 176.847656 165.851562 175.851562 166.230469 174.832031 166.519531 C 174.011719 166.753906 173.117188 166.988281 172.242188 167.03125 C 172.613281 167.480469 173 167.914062 173.40625 168.332031 C 174.042969 168.332031 174.679688 168.347656 175.308594 168.234375 C 175.96875 168.117188 176.617188 167.90625 177.230469 167.640625 C 178.351562 167.164062 179.421875 166.546875 180.433594 165.878906 C 183.863281 163.621094 186.699219 160.484375 188.621094 156.859375 C 189.546875 155.113281 190.285156 153.273438 190.515625 151.300781 C 190.574219 150.761719 190.609375 150.207031 190.609375 149.648438 C 190.605469 149.628906 190.605469 149.609375 190.605469 149.585938 C 190.597656 148.28125 190.371094 146.96875 189.746094 145.84375 C 189.3125 145.773438 188.875 145.71875 188.4375 145.683594 C 188.597656 147.976562 188.378906 150.246094 187.6875 152.445312 Z M 193.882812 165.839844 C 193.128906 167.367188 192.121094 168.734375 190.929688 169.945312 C 190.386719 170.492188 189.816406 171.015625 189.242188 171.527344 C 188.609375 172.09375 187.996094 172.738281 187.277344 173.195312 C 187.253906 173.214844 187.226562 173.222656 187.199219 173.226562 C 187.59375 173.671875 188.03125 174.074219 188.515625 174.421875 C 188.597656 174.480469 188.6875 174.53125 188.773438 174.589844 C 188.789062 174.566406 188.800781 174.539062 188.820312 174.519531 C 189.242188 174.03125 189.730469 173.613281 190.191406 173.164062 C 190.640625 172.71875 191.089844 172.273438 191.515625 171.804688 C 192.347656 170.894531 193.113281 169.921875 193.800781 168.894531 C 196.023438 165.582031 197.667969 161.59375 197.242188 157.535156 C 196.84375 153.777344 194.757812 150.121094 191.425781 148.257812 C 191.476562 148.644531 191.503906 149.039062 191.511719 149.429688 C 192.789062 151.09375 194.070312 152.804688 194.894531 154.746094 C 195.574219 156.347656 195.875 158.0625 195.714844 159.796875 C 195.523438 161.894531 194.8125 163.957031 193.882812 165.839844 Z M 191.734375 174.625 C 190.96875 174.800781 190.191406 174.925781 189.417969 174.984375 C 189.617188 175.09375 189.816406 175.203125 190.027344 175.296875 C 190.289062 175.417969 190.558594 175.519531 190.835938 175.605469 C 190.984375 175.65625 191.160156 175.6875 191.328125 175.738281 C 191.46875 175.367188 191.601562 174.996094 191.734375 174.625 Z M 151.902344 169.429688 C 152.535156 170.859375 153.34375 172.214844 154.273438 173.453125 C 154.285156 172.734375 154.328125 172.011719 154.410156 171.296875 C 154.410156 171.273438 154.421875 171.253906 154.425781 171.230469 C 154.300781 170.996094 154.179688 170.757812 154.066406 170.519531 C 153.214844 168.730469 152.703125 166.832031 152.578125 164.90625 C 152.570312 164.867188 152.5625 164.828125 152.550781 164.789062 C 152.535156 164.707031 152.542969 164.632812 152.5625 164.566406 C 152.503906 163.148438 152.648438 161.714844 153.023438 160.300781 C 153.847656 157.191406 155.578125 154.257812 157.71875 151.878906 C 160.007812 149.335938 162.890625 147.34375 166 145.945312 C 168.953125 144.621094 172.105469 143.820312 175.328125 143.523438 C 177.171875 143.355469 179.035156 143.363281 180.882812 143.546875 C 182.863281 143.746094 187.644531 144.816406 188.046875 144.835938 C 188.125 144.839844 188.203125 144.847656 188.28125 144.851562 C 188.25 144.800781 188.21875 144.753906 188.1875 144.703125 C 188.117188 144.578125 188.046875 144.457031 187.976562 144.332031 C 187.871094 144.148438 187.773438 143.957031 187.65625 143.78125 C 187.632812 143.746094 187.605469 143.714844 187.582031 143.679688 C 187.675781 143.820312 187.585938 143.6875 187.554688 143.652344 C 187.492188 143.582031 187.421875 143.519531 187.347656 143.460938 C 187.332031 143.449219 187.320312 143.4375 187.304688 143.425781 C 187.316406 143.4375 187.320312 143.441406 187.328125 143.445312 C 187.355469 143.46875 187.382812 143.492188 187.328125 143.445312 C 187.324219 143.441406 187.316406 143.4375 187.3125 143.433594 C 187.265625 143.402344 187.21875 143.367188 187.167969 143.339844 C 187.050781 143.265625 186.925781 143.199219 186.804688 143.132812 C 186.765625 143.117188 186.671875 143.0625 186.652344 143.058594 C 186.21875 142.96875 185.796875 142.859375 185.367188 142.746094 C 181.808594 141.808594 178.109375 141.609375 174.453125 142.023438 C 170.738281 142.449219 167.0625 143.507812 163.710938 145.167969 C 160.351562 146.828125 157.347656 149.101562 154.980469 152.015625 C 153.632812 153.671875 152.488281 155.527344 151.6875 157.507812 C 150.953125 159.332031 150.449219 161.289062 150.480469 163.269531 C 150.511719 165.371094 151.03125 167.441406 151.878906 169.378906 C 151.890625 169.398438 151.894531 169.414062 151.902344 169.429688 Z M 198.914062 181.953125 C 199.960938 180.921875 200.789062 179.679688 201.363281 178.328125 C 202.800781 174.964844 202.644531 171.15625 201.839844 167.648438 C 201.570312 168.183594 201.4375 168.550781 201.089844 169.03125 C 201.253906 169.386719 201.285156 169.78125 201.3125 170 C 201.515625 171.703125 201.5 173.058594 201.140625 174.742188 C 200.925781 175.746094 200.570312 176.742188 200.03125 177.621094 C 199.347656 178.738281 198.386719 179.738281 197.421875 180.621094 C 196.332031 181.621094 195.121094 182.5 193.828125 183.222656 C 192.675781 183.867188 191.4375 184.449219 190.132812 184.714844 C 189.429688 185.773438 188.644531 186.777344 187.78125 187.707031 C 189.847656 187.109375 191.902344 186.429688 193.828125 185.472656 C 195.675781 184.554688 197.441406 183.402344 198.914062 181.953125 Z M 192.796875 189.078125 C 193.980469 187.953125 194.984375 186.691406 195.914062 185.367188 C 194.851562 186.011719 193.730469 186.570312 192.578125 187.039062 C 192.28125 187.445312 191.875 187.777344 191.492188 188.09375 C 191.003906 188.5 190.5 188.886719 189.980469 189.257812 C 186.308594 191.867188 181.765625 193.703125 177.207031 193.652344 C 177.203125 193.652344 177.199219 193.648438 177.195312 193.648438 C 175.667969 193.949219 174.101562 194.074219 172.539062 194.019531 C 173.136719 194.152344 173.742188 194.265625 174.347656 194.359375 C 176.621094 194.710938 178.957031 194.773438 181.242188 194.503906 C 183.40625 194.246094 185.511719 193.601562 187.480469 192.671875 C 189.425781 191.757812 191.238281 190.558594 192.796875 189.078125 Z M 174.253906 193.109375 C 175.78125 193.039062 177.214844 192.800781 178.710938 192.359375 C 182.082031 191.371094 185.089844 189.386719 187.441406 186.746094 C 188.894531 185.113281 190.085938 183.253906 191.054688 181.296875 C 192.207031 178.972656 192.925781 176.507812 193.75 174.058594 C 193.320312 174.203125 192.882812 174.332031 192.441406 174.449219 C 192.453125 174.5 192.453125 174.550781 192.4375 174.609375 C 192.289062 175.167969 192.136719 175.722656 191.953125 176.269531 C 190.71875 179.910156 188.800781 183.382812 186.015625 186.070312 C 183.894531 188.121094 181.28125 189.644531 178.417969 190.382812 C 175.941406 191.019531 173.332031 191.074219 170.824219 190.582031 C 167.105469 189.855469 163.878906 187.710938 161.203125 185.089844 C 159.59375 183.511719 158.128906 181.710938 157.125 179.683594 C 156.0625 177.546875 155.488281 175.226562 155.191406 172.871094 C 155.179688 173.050781 155.167969 173.230469 155.164062 173.414062 C 155.042969 178.335938 156.621094 183.226562 159.882812 186.953125 C 162.535156 189.988281 166.160156 192.203125 170.160156 192.875 C 170.328125 192.902344 170.492188 192.929688 170.660156 192.953125 C 170.667969 192.953125 170.726562 192.960938 170.738281 192.964844 C 170.773438 192.96875 170.804688 192.972656 170.835938 192.976562 C 170.910156 192.984375 170.980469 192.996094 171.050781 193.003906 C 171.402344 193.042969 171.75 193.074219 172.101562 193.09375 C 172.820312 193.136719 173.535156 193.144531 174.253906 193.109375 Z M 186.980469 188.523438 C 185.382812 190.066406 183.535156 191.335938 181.527344 192.257812 C 183.4375 191.773438 185.277344 191.015625 187.007812 190.066406 C 187.984375 189.53125 188.925781 188.933594 189.824219 188.273438 C 190.023438 188.125 190.214844 187.964844 190.410156 187.808594 C 189.355469 188.128906 188.285156 188.382812 187.210938 188.5625 C 187.121094 188.574219 187.046875 188.554688 186.980469 188.523438 Z M 189.292969 167.636719 C 188.429688 168.992188 187.414062 170.25 186.324219 171.425781 C 186.230469 171.527344 186.136719 171.625 186.046875 171.722656 C 186.113281 171.757812 186.175781 171.804688 186.222656 171.890625 C 186.410156 172.203125 186.621094 172.503906 186.84375 172.792969 C 186.847656 172.785156 186.847656 172.777344 186.851562 172.773438 C 187.351562 171.992188 188.125 171.367188 188.800781 170.742188 C 189.410156 170.171875 190.027344 169.601562 190.597656 168.996094 C 191.746094 167.777344 192.660156 166.390625 193.351562 164.871094 C 194.167969 163.078125 194.800781 161.105469 194.855469 159.128906 C 194.949219 155.964844 193.289062 153.289062 191.460938 150.839844 C 191.425781 151.25 191.375 151.65625 191.3125 152.054688 C 191.230469 152.546875 191.121094 153.03125 190.984375 153.511719 C 191.503906 155.265625 191.757812 157.105469 191.746094 158.9375 C 191.738281 160.515625 191.542969 162.109375 191.117188 163.628906 C 190.71875 165.054688 190.089844 166.390625 189.292969 167.636719 Z M 174.484375 179.003906 C 174.878906 178.894531 175.269531 178.769531 175.652344 178.621094 C 175.714844 178.597656 175.769531 178.570312 175.828125 178.542969 C 175.351562 178.398438 174.878906 178.242188 174.417969 178.070312 C 173.757812 177.820312 173.109375 177.535156 172.476562 177.222656 C 171.359375 177.542969 170.21875 177.714844 169.058594 177.804688 C 168.714844 177.832031 168.371094 177.851562 168.027344 177.867188 C 169.175781 178.757812 170.617188 179.355469 172.0625 179.363281 C 172.882812 179.371094 173.695312 179.21875 174.484375 179.003906 Z M 166.730469 177.886719 C 166.277344 177.878906 165.820312 177.867188 165.367188 177.832031 C 164.738281 177.785156 164.113281 177.703125 163.492188 177.589844 C 164.257812 178.585938 165.175781 179.464844 166.214844 180.171875 C 168.558594 181.769531 171.382812 182.476562 174.207031 182.195312 C 175.558594 182.0625 177.011719 181.714844 178.207031 181.046875 C 178.976562 180.617188 179.675781 180.054688 180.257812 179.394531 C 179.179688 179.308594 178.109375 179.132812 177.058594 178.878906 C 176.777344 179.195312 176.277344 179.339844 175.894531 179.488281 C 175.480469 179.648438 175.0625 179.78125 174.636719 179.894531 C 173.765625 180.128906 172.847656 180.289062 171.945312 180.261719 C 170.054688 180.214844 168.191406 179.316406 166.832031 178.027344 C 166.785156 177.984375 166.753906 177.933594 166.730469 177.886719 Z M 158.273438 156.375 C 158.117188 157.941406 158.128906 159.539062 158.402344 161.089844 C 158.660156 162.578125 159.183594 164 159.898438 165.328125 C 160.609375 166.640625 161.496094 167.847656 162.539062 168.917969 C 163.066406 169.457031 163.628906 169.964844 164.226562 170.421875 C 164.390625 170.546875 164.554688 170.664062 164.71875 170.78125 C 163.546875 169.171875 162.625 167.390625 162 165.480469 C 161.023438 162.5 160.734375 159.289062 161.066406 156.175781 C 161.351562 153.476562 162.085938 150.828125 163.304688 148.402344 C 161.921875 149.265625 160.625 150.265625 159.449219 151.394531 C 158.835938 152.988281 158.4375 154.675781 158.273438 156.375 Z M 183.328125 179.402344 C 182.671875 179.457031 182.011719 179.46875 181.351562 179.453125 C 181.058594 179.949219 180.617188 180.367188 180.191406 180.734375 C 179.652344 181.195312 179.066406 181.636719 178.425781 181.949219 C 175.601562 183.332031 172.140625 183.523438 169.152344 182.589844 C 166.382812 181.722656 163.964844 179.914062 162.320312 177.53125 C 162.273438 177.457031 162.25 177.386719 162.246094 177.320312 C 161.722656 177.179688 161.210938 177.011719 160.710938 176.8125 C 161.554688 178.554688 162.738281 180.128906 164.195312 181.410156 C 167.03125 183.898438 170.878906 185.03125 174.621094 184.898438 C 176.363281 184.835938 178.070312 184.386719 179.601562 183.550781 C 180.527344 183.046875 181.378906 182.421875 182.160156 181.714844 C 183.027344 180.929688 183.746094 180.015625 184.550781 179.171875 C 184.527344 179.183594 184.507812 179.199219 184.476562 179.207031 C 184.09375 179.316406 183.722656 179.371094 183.328125 179.402344 Z M 182.421875 182.679688 C 181.496094 183.46875 180.480469 184.15625 179.375 184.671875 C 177.6875 185.457031 175.847656 185.824219 173.984375 185.804688 C 172.136719 185.785156 170.203125 185.492188 168.453125 184.894531 C 164.332031 183.484375 161.101562 180.226562 159.472656 176.222656 C 159.402344 176.183594 159.328125 176.148438 159.253906 176.105469 C 158.917969 175.910156 158.582031 175.699219 158.25 175.480469 C 158.878906 178.019531 160.085938 180.390625 161.902344 182.289062 C 163.402344 183.855469 165.253906 185.066406 167.253906 185.902344 C 169.039062 186.644531 170.96875 187.160156 172.902344 187.265625 C 175.296875 187.398438 177.722656 186.957031 179.910156 185.976562 C 181.191406 185.402344 182.398438 184.664062 183.488281 183.78125 C 184.085938 183.292969 184.65625 182.769531 185.1875 182.214844 C 185.65625 181.730469 186.09375 181.21875 186.542969 180.722656 C 186.058594 180.40625 185.609375 180.035156 185.210938 179.613281 C 184.84375 180.203125 184.386719 180.730469 183.914062 181.242188 C 183.445312 181.75 182.949219 182.230469 182.421875 182.679688 Z M 190.984375 176.59375 C 190.835938 176.554688 190.691406 176.507812 190.554688 176.460938 C 190.246094 176.359375 189.945312 176.242188 189.648438 176.109375 C 189.078125 175.855469 188.53125 175.542969 188.027344 175.175781 C 186.980469 174.414062 186.097656 173.460938 185.445312 172.34375 C 185.445312 172.34375 185.445312 172.34375 185.445312 172.339844 C 185.007812 172.78125 184.550781 173.203125 184.070312 173.59375 C 184.105469 173.625 184.144531 173.65625 184.171875 173.707031 C 184.828125 174.839844 185.710938 175.847656 186.757812 176.636719 C 187.289062 177.039062 187.863281 177.386719 188.460938 177.675781 C 188.75 177.820312 189.046875 177.945312 189.351562 178.054688 C 189.632812 178.15625 189.964844 178.214844 190.210938 178.390625 C 190.484375 177.800781 190.738281 177.199219 190.984375 176.59375 Z M 189.84375 179.132812 C 189.550781 179.109375 189.253906 178.976562 188.992188 178.875 C 188.65625 178.75 188.328125 178.609375 188.003906 178.453125 C 187.378906 178.152344 186.789062 177.785156 186.234375 177.363281 C 185.4375 176.757812 184.730469 176.042969 184.128906 175.25 C 184.277344 176.5 184.765625 177.714844 185.582031 178.683594 C 186.046875 179.238281 186.59375 179.710938 187.210938 180.085938 C 187.519531 180.273438 187.84375 180.445312 188.179688 180.578125 C 188.425781 180.675781 188.6875 180.738281 188.929688 180.832031 C 189.253906 180.277344 189.558594 179.710938 189.84375 179.132812 Z M 153.667969 161.511719 C 153.445312 162.644531 153.390625 163.777344 153.472656 164.894531 C 153.886719 166.765625 154.320312 168.667969 155.066406 170.433594 C 155.15625 170.644531 155.253906 170.84375 155.351562 171.039062 C 155.421875 171.167969 155.488281 171.292969 155.558594 171.417969 C 155.570312 171.433594 155.570312 171.449219 155.574219 171.464844 C 155.953125 172.144531 156.402344 172.773438 156.960938 173.324219 C 157.203125 173.566406 157.464844 173.796875 157.734375 174.015625 C 157.820312 174.039062 157.890625 174.089844 157.941406 174.171875 C 158.679688 174.75 159.492188 175.257812 160.324219 175.667969 C 162.164062 176.574219 164.25 176.917969 166.285156 176.984375 C 168.011719 177.035156 169.71875 176.835938 171.429688 176.675781 C 170.660156 176.246094 169.921875 175.769531 169.210938 175.253906 C 168.324219 175.390625 167.402344 175.296875 166.523438 175.152344 C 165.566406 174.996094 164.625 174.730469 163.71875 174.386719 C 160.414062 173.132812 157.582031 170.785156 155.847656 167.691406 C 154.628906 165.515625 153.960938 163.058594 153.886719 160.578125 C 153.804688 160.886719 153.726562 161.199219 153.667969 161.511719 Z M 158.785156 180.78125 C 159.976562 182.613281 161.496094 184.238281 163.15625 185.65625 C 164.773438 187.035156 166.601562 188.285156 168.605469 189.03125 C 169.683594 189.429688 170.808594 189.699219 171.945312 189.863281 C 171.980469 189.867188 172.039062 189.875 172.132812 189.886719 C 172.207031 189.894531 172.277344 189.902344 172.347656 189.914062 C 172.484375 189.925781 172.621094 189.941406 172.757812 189.953125 C 173.058594 189.976562 173.359375 189.996094 173.660156 190.003906 C 174.269531 190.023438 174.878906 190.011719 175.484375 189.964844 C 176.710938 189.871094 177.945312 189.625 179.15625 189.230469 C 181.875 188.34375 184.292969 186.679688 186.226562 184.5625 C 187.058594 183.652344 187.785156 182.664062 188.441406 181.628906 C 188.226562 181.566406 188.015625 181.476562 187.816406 181.394531 C 187.621094 181.3125 187.429688 181.226562 187.238281 181.128906 C 187.066406 181.398438 186.882812 181.660156 186.675781 181.90625 C 184.742188 184.230469 182.21875 186.085938 179.386719 187.160156 C 177.078125 188.035156 174.546875 188.371094 172.089844 188.101562 C 170.046875 187.875 168.035156 187.269531 166.175781 186.402344 C 164.070312 185.417969 162.144531 184.015625 160.648438 182.234375 C 158.824219 180.070312 157.6875 177.445312 157.15625 174.675781 C 156.832031 174.414062 156.523438 174.132812 156.234375 173.835938 C 156.25 173.929688 156.261719 174.019531 156.277344 174.113281 C 156.703125 176.46875 157.476562 178.761719 158.785156 180.78125 Z M 158.785156 180.78125 " fill-opacity="1" fill-rule="nonzero"/></svg>