<svg xmlns="http://www.w3.org/2000/svg" xmlns:xlink="http://www.w3.org/1999/xlink" width="480" zoomAndPan="magnify" viewBox="0 0 360 359.999987" height="480" preserveAspectRatio="xMidYMid meet" version="1.0"><defs><clipPath id="1f9daaf824"><path d="M 126 126 L 234 126 L 234 234 L 126 234 Z M 126 126 " clip-rule="nonzero"/></clipPath><clipPath id="b2da62fbf2"><path d="M 180 126 C 150.175781 126 126 150.175781 126 180 C 126 209.824219 150.175781 234 180 234 C 209.824219 234 234 209.824219 234 180 C 234 150.175781 209.824219 126 180 126 Z M 180 126 " clip-rule="nonzero"/></clipPath><clipPath id="71c9710485"><path d="M 131.546875 131.546875 L 228.453125 131.546875 L 228.453125 228.453125 L 131.546875 228.453125 Z M 131.546875 131.546875 " clip-rule="nonzero"/></clipPath><clipPath id="22296e8165"><path d="M 180 131.546875 C 153.238281 131.546875 131.546875 153.238281 131.546875 180 C 131.546875 206.761719 153.238281 228.453125 180 228.453125 C 206.761719 228.453125 228.453125 206.761719 228.453125 180 C 228.453125 153.238281 206.761719 131.546875 180 131.546875 Z M 180 131.546875 " clip-rule="nonzero"/></clipPath><clipPath id="c3711b7d3e"><path d="M 146.675781 146.675781 L 213.425781 146.675781 L 213.425781 213.425781 L 146.675781 213.425781 Z M 146.675781 146.675781 " clip-rule="nonzero"/></clipPath></defs><g clip-path="url(#1f9daaf824)"><g clip-path="url(#b2da62fbf2)"><path fill="#f4d9db" d="M 126 126 L 234 126 L 234 234 L 126 234 Z M 126 126 " fill-opacity="1" fill-rule="nonzero"/></g></g><g clip-path="url(#71c9710485)"><g clip-path="url(#22296e8165)"><path fill="#ffeaec" d="M 131.546875 131.546875 L 228.453125 131.546875 L 228.453125 228.453125 L 131.546875 228.453125 Z M 131.546875 131.546875 " fill-opacity="1" fill-rule="nonzero"/></g></g><path fill="#cee7f5" d="M 211.53125 170.066406 L 211.53125 191.464844 L 191.464844 191.464844 L 191.464844 211.53125 L 170.066406 211.53125 L 170.066406 191.464844 L 148.449219 191.464844 L 148.449219 170.066406 L 170.066406 170.066406 L 170.066406 148.449219 L 191.464844 148.449219 L 191.464844 170.066406 Z M 211.53125 170.066406 " fill-opacity="1" fill-rule="nonzero"/><g clip-path="url(#c3711b7d3e)"><path fill="#20254b" d="M 193.234375 168.296875 L 193.234375 146.675781 L 168.296875 146.675781 L 168.296875 168.296875 L 146.675781 168.296875 L 146.675781 193.234375 L 168.296875 193.234375 L 168.296875 213.304688 L 193.234375 213.304688 L 193.234375 193.234375 L 213.304688 193.234375 L 213.304688 168.296875 Z M 211.53125 191.464844 L 191.464844 191.464844 L 191.464844 211.53125 L 170.066406 211.53125 L 170.066406 191.464844 L 148.449219 191.464844 L 148.449219 170.066406 L 170.066406 170.066406 L 170.066406 148.449219 L 191.464844 148.449219 L 191.464844 170.066406 L 211.53125 170.066406 Z M 211.53125 191.464844 " fill-opacity="1" fill-rule="nonzero"/></g></svg>