<svg xmlns="http://www.w3.org/2000/svg" xmlns:xlink="http://www.w3.org/1999/xlink" width="480" zoomAndPan="magnify" viewBox="0 0 360 359.999987" height="480" preserveAspectRatio="xMidYMid meet" version="1.0"><defs><clipPath id="172cdc9f2a"><path d="M 93.335938 87.46875 L 266.585938 87.46875 L 266.585938 260.71875 L 93.335938 260.71875 Z M 93.335938 87.46875 " clip-rule="nonzero"/></clipPath></defs><g clip-path="url(#172cdc9f2a)"><path fill="#cee7f5" d="M 266.65625 174.132812 C 266.65625 221.992188 227.859375 260.789062 179.996094 260.789062 C 132.136719 260.789062 93.339844 221.992188 93.339844 174.132812 C 93.339844 126.269531 132.136719 87.472656 179.996094 87.472656 C 227.859375 87.472656 266.65625 126.269531 266.65625 174.132812 " fill-opacity="1" fill-rule="nonzero"/></g><path fill="#ffffff" d="M 210.78125 146.738281 C 210.78125 163.800781 196.949219 177.628906 179.886719 177.628906 C 162.824219 177.628906 148.992188 163.800781 148.992188 146.738281 C 148.992188 129.675781 162.824219 115.84375 179.886719 115.84375 C 196.949219 115.84375 210.78125 129.675781 210.78125 146.738281 " fill-opacity="1" fill-rule="nonzero"/><path fill="#ffffff" d="M 179.886719 256.675781 C 201.746094 256.675781 221.714844 248.578125 236.960938 235.222656 C 232.226562 204.316406 218.292969 182.871094 179.886719 182.871094 C 142.558594 182.871094 128.109375 204.410156 123.035156 235.417969 C 138.25 248.65625 158.132812 256.675781 179.886719 256.675781 " fill-opacity="1" fill-rule="nonzero"/></svg>